<?xml version="1.0" encoding="utf-8"?>
<!-- Generator: Adobe Illustrator 25.4.1, SVG Export Plug-In . SVG Version: 6.00 Build 0)  -->
<svg version="1.1" id="Layer_1" xmlns="http://www.w3.org/2000/svg" xmlns:xlink="http://www.w3.org/1999/xlink" x="0px" y="0px"
	 viewBox="0 0 600 600" style="enable-background:new 0 0 600 600;" xml:space="preserve">
<style type="text/css">
	.st0{fill:url(#SVGID_1_);}
	.st1{fill:#FFFFFF;}
</style>
<g>
	
		<linearGradient id="SVGID_1_" gradientUnits="userSpaceOnUse" x1="2223.248" y1="1.903300e-08" x2="1619.8444" y2="603.4038" gradientTransform="matrix(-1 0 0 1 2223.248 0)">
		<stop  offset="0" style="stop-color:#008BE1"/>
		<stop  offset="0.1038" style="stop-color:#0096DE"/>
		<stop  offset="0.6831" style="stop-color:#01D3CE"/>
		<stop  offset="0.9596" style="stop-color:#01EAC8"/>
	</linearGradient>
	<polygon class="st0" points="600,600 0,600 0,0 600,0 	"/>
	<path class="st1" d="M153.9,323.5c-7.3-0.1-13-4.2-17.2-12.6c-0.7-1.8-1.1-3.7-1.1-5.6v-14.6c-7.6,1.4-11.8,4.8-12.4,10.3v44.5
		c-6-2.5-9-6.3-9-11.3V299l0.5-3.2c4-8.6,10-13.3,17.9-14.3h42.1v32.3h4.5v9.6H153.9z M165.1,290.7h-20.3v12.2
		c0,7.3,3.1,10.9,9.4,10.9h6.1c2.3-0.1,3.9-1.3,4.8-3.7V290.7z M199.8,281.6v21.6c0.9,6.8,3.9,10.3,9,10.6v9.7h0.3
		c-4.7,0-9.4-2.4-14.1-7.1c-3.2,2.7-6,4.7-8.4,5.8c-1.6,0.6-3.3,1-5.1,1.2H177v-9.7c8.5-0.3,12.8-3.7,12.8-10h0.1v-22.2H199.8z
		 M179,332.6c0-2.5,2.1-4.7,4.8-4.7s4.8,2.2,4.8,4.7c0,2.6-2.1,4.8-4.8,4.8S179,335.2,179,332.6z M189.5,332.6
		c0-2.6,2.1-4.7,4.8-4.7c2.6,0,4.8,2,4.8,4.7c0,2.6-2.1,4.8-4.8,4.8C191.6,337.3,189.5,335.2,189.5,332.6z M206.4,323.5l-0.1-9.6
		h0.1h9.5v-58h10v58h4l-0.1,9.6H206.4z M296.1,322.3c-2,0.7-3.9,1.2-5.8,1.2h-3.1c-3.7,0-8-1.9-13-5.6H273c-5.1,3.7-9.4,5.6-13,5.6
		h-3.1c-4.6,0-9.2-2.2-13.9-6.5c-4.8,4.3-9.3,6.5-13.5,6.5h-1.8v-9.6h0.7c6.3-0.1,9.5-4.3,9.5-13v-19.3h9.9v22.3
		c0,5,3.3,8.2,9.9,9.7c7-1.3,10.5-4.8,10.5-10.4v-21.7h10.3v19.9c0,6.8,2.9,10.7,8.7,11.8h2.6c6.3-1,9.4-4.6,9.4-11.1v-20.6h9.9V303
		c0,6.2-1.9,11.1-5.7,14.5C300.8,319.6,298.3,321.2,296.1,322.3z M354,291h-2.9c-8,0-12.5,2.9-13.5,8.7v3.8c0,5.8,3.6,9.3,10.9,10.3
		h50.2c8.1,0,12.1-3.2,12.1-9.5h0.1v-23c6.2,2.3,9.3,6.7,9.3,13.3v19.2h4.6l0.1,9.6h-78.3c-7.4,0-13.2-4.3-17.5-12.8
		c-0.7-2-1.2-3.9-1.2-5.8V300c0.1-7.2,4.4-13,12.8-17.3c2-0.7,3.9-1.2,5.8-1.2h7.4V291z M374.6,337.5c-2.6,0-4.7-2.1-4.7-4.8
		c0-2.6,2-4.8,4.7-4.8s4.8,2.1,4.8,4.8C379.4,335.4,377.3,337.5,374.6,337.5z M421.3,323.5l-0.1-9.6h0.1h9.5v-58h10v58h4l-0.1,9.6
		H421.3z M447.2,304.1v-15.5c0-7.1,4.3-12.7,12.8-16.8l4.8-0.9h2.8c7.1,0,12.8,4.1,17,12.5c0.7,1.8,1.1,3.7,1.1,5.6v19.8
		c0,5.4-4.6,10.1-13.8,14.1l-3.8,0.6h-25.4v-9.6l24.6-0.1c6.3,0.1,9.4-2.2,9.4-6.7V304L447.2,304.1z M456.4,259.3
		c0-2.5,2.1-4.7,4.8-4.7c2.6,0,4.8,2.2,4.8,4.7c0,2.6-2.1,4.8-4.8,4.8C458.5,264,456.4,261.9,456.4,259.3z M456.5,295.8h20.2v-5.1
		c0-6.7-3.1-10.1-9.4-10.1H466c-5.4,0-8.5,3.3-9.4,9.9V295.8z M466.9,259.3c0-2.6,2.1-4.7,4.8-4.7c2.6,0,4.8,2,4.8,4.7
		c0,2.6-2.1,4.8-4.8,4.8C469,264,466.9,261.9,466.9,259.3z"/>
</g>
</svg>
