<?xml version="1.0" encoding="utf-8"?>
<!-- Generator: Adobe Illustrator 25.4.1, SVG Export Plug-In . SVG Version: 6.00 Build 0)  -->
<svg version="1.1" id="Layer_1" xmlns="http://www.w3.org/2000/svg" xmlns:xlink="http://www.w3.org/1999/xlink" x="0px" y="0px"
	 viewBox="0 0 250 70" style="enable-background:new 0 0 250 70;" xml:space="preserve">
<path d="M243.2,32c-1.4,0-2.6,0.9-2.9,2.2h-7.5l-4.7-4.7h-46.9l-3.9-3.9l4.1-4.1H220v-1.6h-39.3l-4.5,4.5l-4.5-4.5h-15.9l-7.3-7.3
	H134l-9.3-9.3l-9.3,9.3h-14.3l-7.3,7.3H77.9l-4.5,4.5l-4.5-4.5H29.5v1.6h38.6l4.1,4.1l-3.9,3.9H21.4l-4.7,4.7h-8
	c-0.3-1-1.3-1.8-2.4-1.8c-1.4,0-2.5,1.1-2.5,2.5c0,1.4,1.1,2.5,2.5,2.5c1.1,0,2-0.7,2.4-1.7h8l4.8,4.6h46.9l3.9,3.9l-4.1,4.1H29.5
	v1.6h39.3l4.5-4.5l4.5,4.5h15.9l7.3,7.3h14.3l9.3,9.3l9.3-9.3h14.3l7.3-7.3h15.9l4.5-4.5l4.5,4.5H220v-1.6h-38.6l-4.1-4.1l3.9-3.9
	h46.9l4.7-4.6h7.5c0.4,1.3,1.5,2.2,2.9,2.2c1.7,0,3-1.4,3-3S244.9,32,243.2,32z M180.6,31.1h46.9l3.1,3.1h-92.9l-2.6-2.6h36.2
	l4.9-4.9L180.6,31.1z M151.5,30l-8.5-8.5h12l8.5,8.5H151.5z M170.9,21.5l4.1,4.1l-4.4,4.4h-4.8l-8.5-8.5H170.9z M147.6,14.2l5.7,5.7
	h-12l-5.7-5.7H147.6z M149.2,30h-15.8l-8.6-8.6l-8.6,8.6h-15.8l24.4-24.4L149.2,30z M86,30l8.5-8.5h12L98,30H86z M101.9,14.2h12
	l-5.7,5.7h-12L101.9,14.2z M78.6,21.5h13.7L83.7,30h-4.8l-4.4-4.4L78.6,21.5z M22.1,31.1h46.9l4.4-4.4l4.9,4.9h36.2l-2.6,2.6H19
	L22.1,31.1z M68.9,38.9H22l-3.1-3h92.9l2.5,2.5H78.3l-4.9,4.9L68.9,38.9z M98,40l8.5,8.5h-12L86,40H98z M78.6,48.5l-4.1-4.1l4.4-4.4
	h4.8l8.5,8.5H78.6z M101.9,55.8l-5.7-5.7h12l5.7,5.7H101.9z M100.3,40H116l8.7,8.7l8.7-8.7h15.7l-24.4,24.4L100.3,40z M163.5,40
	l-8.5,8.5h-12l8.5-8.5H163.5z M147.6,55.8h-12l5.7-5.7h12L147.6,55.8z M170.9,48.5h-13.7l8.5-8.5h4.8l4.4,4.4L170.9,48.5z
	 M227.4,38.9h-46.9l-4.4,4.4l-4.9-4.9h-36.1l2.5-2.5h92.9L227.4,38.9z"/>
</svg>
