<?xml version="1.0" encoding="utf-8"?>
<!-- Generator: Adobe Illustrator 25.4.1, SVG Export Plug-In . SVG Version: 6.00 Build 0)  -->
<svg version="1.1" id="Layer_1" xmlns="http://www.w3.org/2000/svg" xmlns:xlink="http://www.w3.org/1999/xlink" x="0px" y="0px"
	 viewBox="0 0 972 978" style="enable-background:new 0 0 972 978;" xml:space="preserve">
<style type="text/css">
	.st0{fill:#00B771;enable-background:new    ;}
	.st1{fill:#FFFFFF;}
</style>
<path class="st0" d="M896.2,962H75.8C41.3,962,13,933.7,13,899.2V78.8C13,44.3,41.3,16,75.8,16h820.3c34.6,0,62.9,28.3,62.9,62.9
	v820.3C959,933.7,930.7,962,896.2,962z"/>
<g>
	<path class="st1" d="M598,361.6h-59.3c-63.9-62-41.8-61.8-105.5,0c-89,1.3-73.2-14.2-74.6,74.6c-62.1,64-61.8,41.6,0,105.5
		c1.3,89-14.2,73.2,74.6,74.6l41.9,41.9h0c6,6,15.7,6,21.6,0l41.9-41.9c89-1.3,73.2,14.2,74.6-74.6c62.1-64,61.8-41.6,0-105.5v-59.3
		C613.4,368.5,606.5,361.6,598,361.6L598,361.6z M598,374.6c1.3,0,2.3,1,2.3,2.3v46.3l-48.6-48.6H598z M600.4,441.6v94.7l-67,67
		h-94.7l-67-67v-94.7l67-67h94.7L600.4,441.6z M484.4,328.9c0.9-0.9,2.4-0.9,3.3,0l32.7,32.7h-68.8L484.4,328.9z M371.6,376.9
		c0-1.3,1-2.3,2.3-2.3h46.3l-48.6,48.6L371.6,376.9L371.6,376.9z M325.9,490.6c-1-1.2-1-2,0-3.3l32.7-32.7v68.8L325.9,490.6z
		 M374,603.3c-1.3,0-2.3-1-2.3-2.3v-46.3l48.6,48.6H374z M487.6,649.1c-0.9,0.9-2.4,0.9-3.3,0h0l-32.7-32.7h68.8L487.6,649.1z
		 M600.4,601c0,1.3-1,2.3-2.3,2.3h-46.3l48.6-48.6L600.4,601L600.4,601z M646.1,487.3c1,1.2,1,2,0,3.3l-32.7,32.7v-68.8L646.1,487.3
		z"/>
	<path class="st1" d="M703.3,478.2L648,422.9c-0.4-0.4-0.7-1-0.7-1.6V343c0-8.4-6.9-15.3-15.3-15.3h-78.2c-0.6,0-1.2-0.2-1.6-0.7
		c-83.4-79.4-48.7-79.8-132.3,0c-116.3,5.4-91.5-24.4-95.8,95.8c0,0-22.5,22.5-22.5,22.5c-5.9,6,3,15.2,9.2,9.2l22.5-22.5
		c2.9-2.9,4.5-6.7,4.5-10.8V343c0-1.3,1-2.3,2.3-2.3h78.2c4.1,0,7.9-1.6,10.8-4.5l55.3-55.3c0.9-0.9,2.4-0.9,3.3,0l55.3,55.3
		c2.9,2.9,6.7,4.5,10.8,4.5H632c1.3,0,2.3,1,2.3,2.3v78.2c0,4.1,1.6,7.9,4.5,10.8l55.3,55.3c0.6,0.6,0.7,1.3,0.7,1.6s-0.1,1-0.7,1.6
		l-55.3,55.3c-2.9,2.9-4.5,6.7-4.5,10.8v29.1c0,3.6,2.9,6.5,6.5,6.5s6.5-2.9,6.5-6.5v-29.1c0-0.6,0.2-1.2,0.7-1.6l55.3-55.3
		C709.2,494.1,709.2,483.9,703.3,478.2L703.3,478.2z"/>
	<path class="st1" d="M640.8,609c-3.6,0-6.5,2.9-6.5,6.5v19.4c0,1.3-1,2.3-2.3,2.3h-78.2c-4.1,0-7.9,1.6-10.8,4.5L487.6,697
		c-0.9,0.9-2.4,0.9-3.3,0l-55.3-55.3c-2.9-2.9-6.7-4.5-10.8-4.5H340c-1.3,0-2.3-1-2.3-2.3v-78.2c0-4.1-1.6-7.9-4.5-10.8l-55.3-55.3
		c-0.6-0.6-0.7-1.3-0.7-1.6c0-0.4,0.1-1,0.7-1.6l14.2-14.2c2.5-2.5,2.5-6.7,0-9.2c-2.5-2.5-6.7-2.5-9.2,0l-14.2,14.2
		c-5.9,5.7-5.9,15.9,0,21.6l55.3,55.3c0.4,0.4,0.7,1,0.7,1.6v78.2c0,8.4,6.9,15.3,15.3,15.3h78.2c0.6,0,1.2,0.2,1.6,0.7
		c83.6,79.5,48.5,79.7,132.3,0c0.4-0.4,1-0.7,1.6-0.7H632c8.4,0,15.3-6.9,15.3-15.3v-19.4C647.3,611.9,644.4,609,640.8,609
		L640.8,609z"/>
	<path class="st1" d="M425.2,488.5c2,75.9,113.2,75.9,115.2,0C538.3,412.6,427.1,412.6,425.2,488.5z M482.7,443.9
		c58.8,1.5,58.8,87.6,0,89.2C423.9,531.6,423.9,445.5,482.7,443.9z"/>
</g>
</svg>
