<?xml version="1.0" encoding="utf-8"?>
<!-- Generator: Adobe Illustrator 25.4.1, SVG Export Plug-In . SVG Version: 6.00 Build 0)  -->
<svg version="1.1" id="Layer_1" xmlns="http://www.w3.org/2000/svg" xmlns:xlink="http://www.w3.org/1999/xlink" x="0px" y="0px"
	 viewBox="0 0 355 385" style="enable-background:new 0 0 355 385;" xml:space="preserve">
<style type="text/css">
	.st0{fill:#8DC63F;}
	.st1{fill:#231F20;}
</style>
<g>
	<g>
		<path d="M75.8,383.8c-1.6-0.5-3.2-0.9-4.7-1.6c-6.2-3.1-9.7-8.2-9.8-15.2c-0.2-15.1-0.1-30.1,0-45.2c0-2.6,1.4-4.2,3.5-4.1
			c2.1,0.1,3.3,1.6,3.3,4.3c0,14.5,0,28.9,0,43.4c0,7.6,4,11.6,11.6,11.6c47,0,94.1,0,141.1,0c0.7,0,1.5,0,2.5,0
			c-18.3-13.7-25.7-31.2-19.1-53c5.4-17.9,18.5-28,36.7-31.8c0-3.4,0.4-7-0.1-10.4c-0.8-4.9-5-7.9-10.2-7.9c-12,0-23.9,0-35.9,0
			c-8,0-16.1,0-24.1,0c-7.8,0-13.4-4.4-15.4-11.9c-0.8-2.9-1.4-5.7-2.2-8.6c-1.2-4.4-4.2-6.8-8.7-6.8c-21.9,0-43.8,0-65.7,0
			c-6.2,0-10.6,4.4-10.6,10.6c0,15.4,0,30.9,0,46.3c0,0.8,0.1,1.5-0.1,2.3c-0.4,1.7-1.6,2.7-3.4,2.7c-1.8-0.1-2.8-1.1-3.2-2.7
			c-0.2-0.7-0.1-1.5-0.1-2.3c0-14.7,0.2-29.4-0.1-44.1c-0.2-8.4,3.1-16.3,13.7-19.5c0-0.8,0-1.7,0-2.7c0-22.5,0-45,0-67.5
			c0-11.6,7-18.7,18.7-18.7c40.7,0,81.5,0,122.2,0c11.5,0,18.5,7.1,18.5,18.5c0,31.6,0,63.2,0,94.7c0,0.9,0,1.8,0,2.8
			c5.3,1.4,9.3,4.3,11.8,9.2c2.5,4.8,1.6,10.1,1.9,15.1c3.3,0.5,6.6,0.7,9.7,1.4c18.7,3.9,33.2,19.8,35.7,38.7
			c0.1,0.6,0.3,1.2,0.4,1.7c0,3,0,6.1,0,9.1c-0.1,0.4-0.3,0.8-0.4,1.3c-2.5,19-16.3,34.4-35,38.8c-2,0.5-3.9,0.8-5.9,1.3
			c-3,0-6.1,0-9.1,0c-3.3-0.9-6.7-1.7-10,0C180.9,383.8,128.3,383.8,75.8,383.8z M227.5,267.1c0-0.9,0-1.6,0-2.2
			c0-31.9,0-63.7,0-95.6c0-7.1-4.2-11.2-11.3-11.2c-41,0-82.1,0-123.1,0c-7.3,0-11.4,4.1-11.4,11.4c0,22.6,0,45.3,0,67.9
			c0,0.8,0,1.6,0,2.5c1.3,0,2.2,0,3.1,0c19.8,0,39.7,0,59.5,0c7.6,0,13.3,4.4,15.3,11.7c0.7,2.6,1.3,5.1,2,7.7
			c1.5,5.8,4.1,7.8,10,7.8c17.8,0,35.6,0,53.4,0C225.7,267.1,226.5,267.1,227.5,267.1z M208.7,337.9c0,21.6,17.6,39.1,39.1,39.1
			c21.6,0,39.2-17.6,39.2-39.1c0-21.7-17.6-39.3-39.3-39.2C226.1,298.8,208.7,316.2,208.7,337.9z"/>
		<g>
			<path d="M128,325.8c0-4.6,0-9.2,0-13.8c0-3.1,1.1-4.2,4.3-4.2c2.3,0,4.7-0.1,7,0c7.9,0.2,13.4,4.6,15.1,12.4
				c1.2,5.4,1,10.7-1.6,15.7c-2.7,5.2-6.9,8.1-12.9,8.2c-2.5,0.1-5,0.1-7.5,0.1c-2.9,0-4.3-1.3-4.4-4.2
				C127.9,335.2,128,330.5,128,325.8z M134.9,337c6.4,0.8,9.7-0.4,11.7-4.1c2.4-4.4,2-11.9-0.9-15.6c-2.1-2.7-6.7-3.7-10.8-2.4
				C134.9,322.2,134.9,329.6,134.9,337z"/>
			<path d="M104.9,330.7c0,3.4,0,6.3,0,9.3c0,2.5-1.3,4-3.3,4c-2.1,0-3.5-1.5-3.5-4.1c0-9.7,0-19.4,0-29.1c0-2.6,1.1-3.9,3.6-4
				c3.2-0.1,6.5-0.1,9.8,0.1c6.2,0.6,10.8,5.9,10.7,12c-0.1,6.2-5.1,11.4-11.3,11.7C108.9,330.8,107,330.7,104.9,330.7z M105,313.6
				c0,3.6,0,6.9,0,10.4c1.5,0,2.8,0,4.1,0c0.6,0,1.2,0,1.8-0.1c2.4-0.4,4.2-2.5,4.3-4.9c0.1-2.3-1.6-4.7-4-5.1
				C109.3,313.6,107.2,313.7,105,313.6z"/>
			<path d="M167.3,313.9c0,2.8,0,5.2,0,8c2.4,0,4.7,0,7,0c2.6,0,4.2,1.3,4.2,3.4c0,2.1-1.6,3.3-4.2,3.4c-2.1,0-4.2,0-6.4,0.1
				c-0.1,0-0.3,0.1-0.7,0.3c0,3.6,0,7.4,0,11.2c0,1.8-0.6,3.1-2.4,3.7c-2.2,0.7-4.4-0.8-4.4-3.2c-0.1-10.1-0.1-20.1,0-30.2
				c0-2.1,1.4-3.4,3.5-3.4c4-0.1,8-0.1,12,0c2.1,0,3.5,1.5,3.5,3.4c0,1.9-1.4,3.3-3.5,3.4C173.1,313.9,170.3,313.9,167.3,313.9z"/>
		</g>
		<path d="M204.2,191.9c0-4.5,0-8.8,0-13.5c-0.9,0-1.7,0-2.5,0c-6.1,0-12.1,0-18.2,0c-2.5,0-4-1.3-4.1-3.3c-0.1-2.1,1.5-3.5,4.1-3.5
			c7.1,0,14.2,0,21.4,0c3.9,0,6.1,2.3,6.2,6.3c0,4.8,0,9.5,0,14.3c0,4.5-2.2,6.6-6.7,6.6c-33.2,0-66.5,0-99.7,0c-0.2,0-0.3,0-0.5,0
			c-3.9-0.1-6.2-2.3-6.2-6.3c0-4.9,0-9.8,0-14.8c0-3.9,2.3-6.2,6.2-6.2c20.7,0,41.3,0,62,0c2.6,0,4,1.2,4,3.3
			c0.1,2.2-1.4,3.5-4.1,3.5c-19.5,0-38.9,0-58.4,0c-0.9,0-1.8,0-2.9,0c0,4.5,0,8.9,0,13.5C138,191.9,171,191.9,204.2,191.9z"/>
		<path d="M154.6,219.3c-17.1,0-34.2,0-51.3,0c-0.7,0-1.4,0-2,0c-1.9-0.2-3.3-1.7-3.2-3.5c0.1-1.9,1.2-3,3.1-3.3
			c0.6-0.1,1.2,0,1.8,0c34.4,0,68.7,0,103.1,0c0.6,0,1.2,0,1.8,0c1.9,0.2,3.3,1.7,3.2,3.5c-0.1,1.9-1.2,3-3.1,3.3
			c-0.7,0.1-1.4,0-2,0C188.8,219.3,171.7,219.3,154.6,219.3z"/>
		<path d="M154.6,233c-17.2,0-34.4,0-51.5,0c-0.8,0-1.5,0.1-2.3-0.1c-1.7-0.4-2.8-1.6-2.7-3.4c0.1-1.7,1.1-2.8,2.7-3.2
			c0.7-0.2,1.5-0.1,2.3-0.1c34.4,0,68.7,0,103.1,0c0.7,0,1.4-0.1,2,0.1c1.8,0.3,2.9,1.4,2.9,3.3c0,1.9-1.1,3.1-3,3.4
			c-0.7,0.1-1.5,0.1-2.3,0.1C188.8,233,171.7,233,154.6,233z"/>
		<path d="M188.7,239.8c6,0,12.1,0,18.1,0c2.7,0,4.2,1.2,4.3,3.3c0.1,2.2-1.6,3.5-4.3,3.5c-12.1,0-24.2,0-36.3,0
			c-2.7,0-4.2-1.2-4.3-3.3c-0.1-2.2,1.6-3.5,4.3-3.5C176.6,239.8,182.6,239.8,188.7,239.8z"/>
		<path d="M188.7,253.4c6,0,12.1,0,18.1,0c2.7,0,4.2,1.2,4.3,3.3c0.1,2.2-1.6,3.5-4.3,3.5c-12.1,0-24.2,0-36.3,0
			c-2.7,0-4.2-1.2-4.3-3.3c-0.1-2.2,1.6-3.5,4.3-3.5C176.6,253.4,182.6,253.4,188.7,253.4z"/>
		<path class="st0" d="M236.6,343.4c0-6.1,0-11.9,0-17.7c0-3,0-5.9,0-8.9c0-4,2.3-6.4,6.3-6.5c3.2-0.1,6.4-0.1,9.5,0
			c4.4,0.1,6.8,2.4,6.8,6.8c0,7.9,0,15.8,0,23.6c0,0.8,0,1.6,0,2.7c1.8,0,3.4,0,4.9,0c2.4,0.1,4.2,1.2,5.2,3.4
			c1,2.2,0.6,4.4-1.1,6.1c-5.4,5.4-10.8,10.9-16.2,16.2c-2.4,2.3-5.8,2.4-8.2,0c-5.5-5.4-11-10.9-16.4-16.4c-1.7-1.7-2-3.9-1-6.1
			c1-2.1,2.7-3.2,5-3.3C233.1,343.4,234.6,343.4,236.6,343.4z M252.4,317.3c-3.2,0-6.1,0-9,0c0,8,0,15.9,0,23.8
			c0,7.3-1.1,8.5-8.2,9.2c0,0-0.1,0.1,0,0c4.3,4.3,8.6,8.6,12.6,12.6c4-4.1,8.3-8.5,12.4-12.6c0.2,0-0.1,0-0.4,0
			c-5.4-0.1-7.4-2.1-7.4-7.5c0-6.4,0-12.9,0-19.3C252.4,321.5,252.4,319.4,252.4,317.3z"/>
	</g>
	<g>
		<g>
			<path class="st1" d="M34.1,15.7v12.8c0,1-0.3,1.9-1,2.6c-0.8,1-1.8,1.4-3,1.4H9.6c-1.6,0-3-0.5-4.1-1.5c-1.5-1.3-2.3-3-2.3-5.1
				v-5.8l2.3-1.8h2.2V26c0,0.9,0.3,1.6,0.9,2.1c0.6,0.5,1.2,0.8,1.9,0.8h18.2c0.6,0,0.9-0.3,0.9-0.9V15.7H34.1z M15.9,14.7
				c0.7,0,1.2,0.2,1.7,0.7c0.5,0.5,0.7,1,0.7,1.7s-0.2,1.2-0.7,1.7c-0.5,0.5-1,0.7-1.7,0.7c-0.6,0-1.2-0.2-1.6-0.7
				c-0.5-0.5-0.7-1-0.7-1.7s0.2-1.2,0.7-1.7C14.7,15,15.2,14.7,15.9,14.7z M21.5,14.7c0.6,0,1.2,0.2,1.6,0.7c0.5,0.5,0.7,1,0.7,1.7
				s-0.2,1.2-0.7,1.7c-0.5,0.5-1,0.7-1.6,0.7c-0.7,0-1.2-0.2-1.7-0.7c-0.5-0.5-0.7-1-0.7-1.7s0.2-1.2,0.7-1.7
				C20.2,15,20.8,14.7,21.5,14.7z"/>
			<path class="st1" d="M43.6,6.4v21.6c0,0.2,0.1,0.4,0.2,0.6c0.1,0.2,0.4,0.3,0.7,0.3h1v3.7h-2.4c-1,0-1.9-0.4-2.6-1.1
				c-0.9-0.8-1.3-1.8-1.3-3V6.4H43.6z"/>
			<path class="st1" d="M50.1,16.4c2.4-0.7,4.5-1.1,6.3-1.1c3,0,5.3,0.9,7.1,2.8c1.6,1.7,2.5,3.8,2.5,6.3v4.2c0,1-0.3,1.9-1,2.7
				c-0.8,0.9-1.8,1.3-2.9,1.3H45.2v-3.7h15.4c0.6,0,0.9-0.3,0.9-0.9v-3.3c0-1.7-0.6-3.1-1.7-4c-1.1-1-2.6-1.5-4.6-1.5
				c-1.1,0-2.9,0.3-5.2,0.8V16.4z M55.2,35.3c0.7,0,1.2,0.2,1.7,0.7s0.7,1,0.7,1.7s-0.2,1.2-0.7,1.7c-0.5,0.5-1,0.7-1.7,0.7
				c-0.6,0-1.2-0.2-1.6-0.7c-0.5-0.5-0.7-1-0.7-1.7s0.2-1.2,0.7-1.7C54,35.5,54.6,35.3,55.2,35.3z"/>
			<path class="st1" d="M101.5,15.7v12.2c0,0.3,0.1,0.5,0.3,0.7c0.1,0.2,0.3,0.3,0.6,0.3h1v3.7H101c-1.3,0-2.4-0.5-3.1-1.6
				c-0.6-0.8-0.8-1.6-0.8-2.5v-8.3c-2.5,0.5-4.2,2-5.1,4.5c-0.5,1.4-0.8,3.6-0.8,6.6v1.3H89c-4.1,0-7.2-1-9.4-3.1
				c-2.1-2-3.1-4.6-3.1-8c0-0.8,0.1-1.6,0.2-2.5h4.1c0,0.6-0.1,1.2-0.1,1.7c0,2.3,0.6,4.2,1.7,5.5c1.1,1.3,2.7,2,4.7,2.1
				c0.1-4.2,1.6-7.4,4.3-9.6c2.3-2,5.1-2.9,8.4-2.9H101.5z"/>
			<path class="st1" d="M114.1,6.4v22.2c0,1-0.3,1.9-1,2.6c-0.8,0.9-1.7,1.4-3,1.4h-7.1v-3.7h5.6c0.3,0,0.5-0.1,0.7-0.3
				c0.2-0.2,0.3-0.4,0.3-0.6V6.4H114.1z"/>
			<path class="st1" d="M123.6,6.4v25.3l-2.3,1.8h-2.2V6.4H123.6z"/>
			<path class="st1" d="M136.5,32.6c-2.7,0-4.8-0.9-6.3-2.7c-1.3-1.6-1.9-3.5-1.9-5.8c0-2.7,0.8-4.9,2.3-6.4
				c1.6-1.6,3.7-2.3,6.2-2.3c1.8,0,3.4,0.5,4.8,1.4c1.8,1.3,2.6,3.1,2.6,5.4v6.8h1.2v3.7h-1.2c-0.2,2.6-1.1,4.7-2.8,6.2
				c-1.2,1-2.6,1.8-4.2,2.2c-1.1,0.3-2.3,0.4-3.4,0.4c-0.4,0-0.9,0-1.6-0.1H132l-1.9-2.3v-1.6c1,0.2,1.9,0.3,2.8,0.3
				c4,0,6.2-1.7,6.6-5H136.5z M139.6,22.1c0-1-0.3-1.7-1-2.3c-0.6-0.5-1.2-0.7-2-0.7c-1.2,0-2.2,0.4-3,1.3s-1.1,2.1-1.1,3.6
				c0,1.5,0.4,2.7,1.2,3.6s1.9,1.3,3.3,1.3h2.5V22.1z"/>
			<path class="st1" d="M149.9,16.4c2.4-0.7,4.5-1.1,6.3-1.1c3,0,5.3,0.9,7.1,2.8c1.6,1.7,2.5,3.8,2.5,6.3v4.2c0,1-0.3,1.9-1,2.7
				c-0.8,0.9-1.8,1.3-2.9,1.3H145v-3.7h15.4c0.6,0,0.9-0.3,0.9-0.9v-3.3c0-1.7-0.6-3.1-1.7-4c-1.1-1-2.6-1.5-4.6-1.5
				c-1.1,0-2.9,0.3-5.2,0.8V16.4z"/>
			<path class="st1" d="M181,28.8c-1-1.4-1.5-3.1-1.5-5.2c0-2.6,0.9-4.7,2.7-6.3c1.5-1.3,3.4-2,5.7-2.1c2.2,0,4,0.6,5.3,1.7
				c1.5,1.2,2.2,2.9,2.2,5.1v5.9c0,0.3,0.1,0.5,0.3,0.7c0.1,0.2,0.3,0.3,0.5,0.3h0.4v3.7h-1.6c-0.7,0-1.3-0.1-1.7-0.4
				c-0.5-0.2-0.9-0.5-1.3-1c-0.5,0.4-1.1,0.7-1.8,0.9c-0.9,0.3-2,0.4-3.2,0.4H182c-0.6,0-0.9,0.3-0.9,0.9v11l-2.3,1.8h-2.2V32.9
				c0-1,0.4-2,1.1-2.7c0.8-0.9,1.7-1.3,2.7-1.3H181z M190.9,22.1c0-0.9-0.3-1.6-0.8-2.2c-0.5-0.6-1.3-0.9-2.2-0.9
				c-1.2,0-2.2,0.4-2.9,1.3c-0.7,0.9-1.1,2.1-1.1,3.5c0,1.6,0.4,2.8,1.2,3.7c0.8,0.9,1.9,1.3,3.3,1.3c0.9,0,1.8-0.2,2.6-0.5V22.1z"
				/>
			<path class="st1" d="M207.3,15.7v12.6v0.5h1.9v3.7h-1.3l-1.4-1.5h-0.1c-0.8,1-1.9,1.5-3.1,1.5h-7.1v-3.7h5.5
				c0.3,0,0.6-0.1,0.7-0.3c0.2-0.2,0.3-0.4,0.3-0.7V15.7H207.3z M199.3,35.3c0.7,0,1.2,0.2,1.7,0.7c0.5,0.5,0.7,1,0.7,1.7
				s-0.2,1.2-0.7,1.7c-0.5,0.5-1,0.7-1.7,0.7s-1.2-0.2-1.7-0.7c-0.5-0.5-0.7-1-0.7-1.7s0.2-1.2,0.7-1.7
				C198.1,35.5,198.7,35.3,199.3,35.3z M204.9,35.3c0.7,0,1.2,0.2,1.7,0.7c0.5,0.5,0.7,1,0.7,1.7s-0.2,1.2-0.7,1.7
				c-0.5,0.5-1,0.7-1.7,0.7c-0.6,0-1.2-0.2-1.6-0.7c-0.5-0.5-0.7-1-0.7-1.7s0.2-1.2,0.7-1.7C203.7,35.5,204.3,35.3,204.9,35.3z"/>
			<path class="st1" d="M219.9,6.4v21.9v0.5h1.9v3.7h-1.2l-1.4-1.5h-0.1c-0.8,1-1.9,1.5-3.1,1.5h-7.1v-3.7h5.6
				c0.3,0,0.5-0.1,0.7-0.3c0.1-0.2,0.2-0.5,0.2-0.6V6.4H219.9z"/>
			<path class="st1" d="M260.4,15.7v12.8c0,1.1-0.4,2-1.2,2.8c-0.8,0.8-1.7,1.2-2.8,1.2h-7.7l-1.4-1.5h-0.1c-0.8,1-1.8,1.5-3.1,1.5
				h-7.7l-1.4-1.5H235c-0.8,1-1.8,1.5-3.1,1.5h-10.4v-3.7h9c0.6,0,0.9-0.3,0.9-0.9v-8h4.5v7.3c0,0.7,0,1.2,0,1.6h6.9
				c0.6,0,0.9-0.3,0.9-0.9V17.8h4.5v9.8c0,0.1,0,0.4,0,0.7c0,0.3,0,0.5,0,0.6h6.9c0.6,0,0.9-0.3,0.9-0.9V15.7H260.4z"/>
			<path class="st1" d="M277.9,39.1l-7.5,2.1l-0.7-0.8v-0.9l8.2-2.3V39.1z"/>
			<path class="st1" d="M309.8,15.7v12.6c0,0.2,0,0.4,0,0.5h1.9v3.7h-1.2l-1.4-1.5h-0.1c-0.8,1-1.8,1.5-3.1,1.5h-20.5
				c-1.6,0-2.9-0.5-4.1-1.5c-1.6-1.3-2.3-3-2.3-5.1v-5.8l2.3-1.8h2.2V26c0,0.9,0.3,1.6,0.9,2.1c0.6,0.5,1.2,0.8,1.9,0.8h18.1
				c0.3,0,0.6-0.1,0.8-0.3c0.1-0.2,0.2-0.4,0.2-0.7V15.7H309.8z M294.4,35.3c0.7,0,1.2,0.2,1.7,0.7c0.5,0.5,0.7,1,0.7,1.7
				s-0.2,1.2-0.7,1.7c-0.5,0.5-1,0.7-1.7,0.7s-1.2-0.2-1.7-0.7c-0.5-0.5-0.7-1-0.7-1.7s0.2-1.2,0.7-1.7
				C293.1,35.5,293.7,35.3,294.4,35.3z"/>
			<path class="st1" d="M322.4,6.4v21.9v0.5h1.9v3.7H323l-1.4-1.5h-0.1c-0.8,1-1.9,1.5-3.1,1.5h-7.1v-3.7h5.6c0.3,0,0.5-0.1,0.7-0.3
				c0.1-0.2,0.2-0.5,0.2-0.6V6.4H322.4z"/>
			<path class="st1" d="M331.4,28.8c-0.6-0.7-1-1.5-1.3-2.5c-0.3-0.9-0.4-1.9-0.4-2.8c0-2.1,0.6-3.9,1.9-5.4
				c1.6-1.9,3.8-2.9,6.7-2.9c2.1,0,3.8,0.5,5.1,1.6c1.5,1.3,2.2,3,2.2,5.1v6.5c0,1-0.3,1.9-1,2.7c-0.8,0.9-1.8,1.4-3,1.4H324v-3.7
				H331.4z M335.4,7.7c0.7,0,1.2,0.2,1.7,0.7c0.5,0.5,0.7,1,0.7,1.7c0,0.6-0.2,1.2-0.7,1.6c-0.5,0.5-1,0.7-1.7,0.7
				c-0.6,0-1.2-0.2-1.6-0.7s-0.7-1-0.7-1.6c0-0.7,0.2-1.2,0.7-1.7C334.3,7.9,334.8,7.7,335.4,7.7z M341.1,22.1c0-1-0.3-1.8-1-2.4
				c-0.5-0.4-1.2-0.6-1.9-0.6c-1.6,0-2.7,0.6-3.4,1.9c-0.5,0.8-0.7,1.8-0.7,3c0,1.6,0.5,2.9,1.5,3.8c0.8,0.8,1.9,1.1,3.3,1.1h1.3
				c0.6,0,0.9-0.3,0.9-0.9V22.1z M341,7.7c0.7,0,1.2,0.2,1.7,0.7c0.5,0.5,0.7,1,0.7,1.7c0,0.6-0.2,1.2-0.7,1.6
				c-0.5,0.5-1,0.7-1.7,0.7c-0.6,0-1.2-0.2-1.6-0.7s-0.7-1-0.7-1.6c0-0.7,0.2-1.2,0.7-1.7C339.8,7.9,340.4,7.7,341,7.7z"/>
			<path class="st1" d="M51,75.9l1.5-14.4h13.8v3.8H56.1l-0.8,6.5c0.5-0.4,1.1-0.7,1.8-0.9c0.7-0.2,1.4-0.4,2.3-0.4
				c2.4,0,4.4,0.8,5.7,2.3c1.4,1.6,2.1,3.7,2.1,6.5c0,2.6-0.7,4.6-2.2,6.3c-1.5,1.6-3.6,2.4-6.3,2.4c-2.3,0-4.2-0.6-5.8-1.9
				c-1.6-1.3-2.3-3-2.3-5.4l0-0.1l4.1-0.1c0,1.3,0.4,2.2,1.1,2.9s1.7,1,2.9,1c1.3,0,2.4-0.5,3.1-1.4c0.7-0.9,1.1-2.2,1.1-3.8
				c0-1.6-0.4-2.9-1.1-3.8S60,74,58.7,74c-1.2,0-2.1,0.2-2.7,0.6s-1,1-1.3,1.7L51,75.9z"/>
			<path class="st1" d="M88.2,65c-3,3.5-5,6.7-6.1,9.5s-1.8,6.3-2.3,10.3l-0.3,2.8h-4.3l0.3-2.8c0.5-3.9,1.4-7.5,2.8-10.7
				c1.4-3.2,3.3-6.2,5.7-9.1H70.3v-3.5h18V65z"/>
			<path class="st1" d="M128.8,83.8v3.7h-22.3c-0.9,0-1.6,0.2-2.2,0.6c-0.5,0.4-0.8,1-0.8,1.7c0,0.5,0.2,1,0.5,1.3
				c0.4,0.4,0.9,0.6,1.6,0.6h16v1.5l-1.8,2.3h-15c-2,0-3.5-0.6-4.6-1.9c-0.8-1-1.2-2.1-1.2-3.6c0-1.8,0.6-3.2,1.7-4.3
				c1.3-1.2,3-1.8,5.1-1.8H128.8z"/>
			<path class="st1" d="M162.5,70.7v12.8c0,1.1-0.4,2-1.2,2.8c-0.8,0.8-1.7,1.2-2.8,1.2h-7.7l-1.4-1.5h-0.1c-0.8,1-1.8,1.5-3.1,1.5
				h-7.7l-1.4-1.5h-0.1c-0.8,1-1.8,1.5-3.1,1.5h-10.4v-3.7h9c0.6,0,0.9-0.3,0.9-0.9v-8h4.5v7.3c0,0.7,0,1.2,0,1.6h6.9
				c0.6,0,0.9-0.3,0.9-0.9V72.8h4.5v9.8c0,0.1,0,0.4,0,0.7c0,0.3,0,0.5,0,0.6h6.9c0.6,0,0.9-0.3,0.9-0.9V70.7H162.5z"/>
			<path class="st1" d="M184.6,87.6h-4.3V65.7h-5.3v-3.2l9.6-0.9V87.6z"/>
			<path class="st1" d="M226,70.7v12.2c0,0.3,0.1,0.5,0.3,0.7c0.1,0.2,0.3,0.3,0.6,0.3h1v3.7h-2.3c-1.3,0-2.4-0.5-3.1-1.6
				c-0.6-0.8-0.8-1.6-0.8-2.5v-8.3c-2.5,0.5-4.2,2-5.1,4.5c-0.5,1.4-0.8,3.6-0.8,6.6v1.3h-2.2c-4.1,0-7.2-1-9.4-3.1
				c-2.1-2-3.1-4.6-3.1-8c0-0.8,0.1-1.6,0.2-2.5h4.1c0,0.6-0.1,1.2-0.1,1.7c0,2.3,0.6,4.2,1.7,5.5c1.1,1.3,2.7,2,4.7,2.1
				c0.1-4.2,1.6-7.4,4.3-9.6c2.3-2,5.1-2.9,8.4-2.9H226z"/>
			<path class="st1" d="M232.5,71.4c2.3-0.7,4.4-1.1,6.3-1.1c3,0,5.3,0.9,7.1,2.8c1.6,1.7,2.5,3.8,2.5,6.3v3.9v0.5h1.2v3.7h-0.8
				l-1.2-1.5h-0.1c-0.8,1-1.9,1.5-3.1,1.5h-16.8v-3.7H243c0.6,0,0.9-0.3,0.9-0.9v-3.3c0-1.7-0.6-3-1.7-4c-1.1-1-2.6-1.5-4.4-1.5
				c-1.2,0-3,0.3-5.4,0.8V71.4z"/>
			<path class="st1" d="M256.6,83.8c-1.1-1.5-1.6-3.2-1.6-5.3c0-1.9,0.5-3.5,1.4-4.9c1.5-2.2,3.8-3.4,6.7-3.4c2.2,0,4,0.7,5.5,2.1
				c1.7,1.6,2.6,3.7,2.6,6.2c0,2-0.5,3.8-1.6,5.3h2.5v3.7h-5.5c-1.6,0-2.7-0.2-3.4-0.5H263c-0.7,0.3-1.8,0.5-3.4,0.5h-10.2v-3.7
				H256.6z M263.1,83.8c1.1-0.1,2-0.6,2.7-1.5c0.7-0.9,1-2,1-3.4c0-1.5-0.3-2.6-1-3.5s-1.6-1.3-2.7-1.3c-1.1,0-2,0.4-2.7,1.3
				c-0.7,0.9-1,2.1-1,3.5c0,1.4,0.3,2.5,1,3.4C261.1,83.2,262,83.7,263.1,83.8z M263.1,62.7c0.6,0,1.2,0.2,1.6,0.7
				c0.5,0.5,0.7,1,0.7,1.7c0,0.6-0.2,1.2-0.7,1.6s-1,0.7-1.6,0.7c-0.7,0-1.2-0.2-1.7-0.7c-0.5-0.5-0.7-1-0.7-1.6
				c0-0.7,0.2-1.2,0.7-1.7C261.9,62.9,262.5,62.7,263.1,62.7z"/>
			<path class="st1" d="M282.8,76.9c3.3-4.4,7.3-6.6,12.1-6.6c2.9,0,5.3,0.9,7.3,2.7c1.7,1.7,2.6,3.8,2.6,6.3v4.2
				c0,1.1-0.4,2-1.1,2.8c-0.8,0.8-1.7,1.2-2.8,1.2h-29v-3.7h6.6V70.7h4.4V76.9z M300.3,79.5c0-1.5-0.5-2.7-1.5-3.7
				c-1.2-1.2-2.7-1.8-4.6-1.8c-1.9,0-3.7,0.6-5.5,1.9c-2.4,1.7-4.4,4.3-5.9,7.9h16.6c0.6,0,0.9-0.3,0.9-0.9V79.5z"/>
		</g>
	</g>
</g>
</svg>
