<?xml version="1.0" encoding="utf-8"?>
<!-- Generator: Adobe Illustrator 25.4.1, SVG Export Plug-In . SVG Version: 6.00 Build 0)  -->
<svg version="1.1" id="Layer_1" xmlns="http://www.w3.org/2000/svg" xmlns:xlink="http://www.w3.org/1999/xlink" x="0px" y="0px"
	 viewBox="0 0 450 400" style="enable-background:new 0 0 450 400;" xml:space="preserve">
<style type="text/css">
	.st0{fill:#8DC63F;}
	.st1{fill:#231F20;}
</style>
<g>
	<g>
		<path d="M123.3,396c-1.6-0.5-3.2-0.9-4.7-1.6c-6.2-3.1-9.7-8.2-9.8-15.2c-0.2-15.1-0.1-30.1,0-45.2c0-2.6,1.4-4.2,3.5-4.1
			c2.1,0.1,3.3,1.6,3.3,4.3c0,14.5,0,28.9,0,43.4c0,7.6,4,11.6,11.6,11.6c47,0,94.1,0,141.1,0c0.7,0,1.5,0,2.5,0
			c-18.3-13.7-25.7-31.2-19.1-53c5.4-17.9,18.5-28,36.7-31.8c0-3.4,0.4-7-0.1-10.4c-0.8-4.9-5-7.9-10.2-7.9c-12,0-23.9,0-35.9,0
			c-8,0-16.1,0-24.1,0c-7.8,0-13.4-4.4-15.4-11.9c-0.8-2.9-1.4-5.7-2.2-8.6c-1.2-4.4-4.2-6.8-8.7-6.8c-21.9,0-43.8,0-65.7,0
			c-6.2,0-10.6,4.4-10.6,10.6c0,15.4,0,30.9,0,46.3c0,0.8,0.1,1.5-0.1,2.3c-0.4,1.7-1.6,2.7-3.4,2.7c-1.8-0.1-2.8-1.1-3.2-2.7
			c-0.2-0.7-0.1-1.5-0.1-2.3c0-14.7,0.2-29.4-0.1-44.1c-0.2-8.4,3.1-16.3,13.7-19.5c0-0.8,0-1.7,0-2.7c0-22.5,0-45,0-67.5
			c0-11.6,7-18.7,18.7-18.7c40.7,0,81.5,0,122.2,0c11.5,0,18.5,7.1,18.5,18.5c0,31.6,0,63.2,0,94.7c0,0.9,0,1.8,0,2.8
			c5.3,1.4,9.3,4.3,11.8,9.2c2.5,4.8,1.6,10.1,1.9,15.1c3.3,0.5,6.6,0.7,9.7,1.4c18.7,3.9,33.2,19.8,35.7,38.7
			c0.1,0.6,0.3,1.2,0.4,1.7c0,3,0,6.1,0,9.1c-0.1,0.4-0.3,0.8-0.4,1.3c-2.5,19-16.3,34.4-35,38.8c-2,0.5-3.9,0.8-5.9,1.3
			c-3,0-6.1,0-9.1,0c-3.3-0.9-6.7-1.7-10,0C228.4,396,175.8,396,123.3,396z M275,279.2c0-0.9,0-1.6,0-2.2c0-31.9,0-63.7,0-95.6
			c0-7.1-4.2-11.2-11.3-11.2c-41,0-82.1,0-123.1,0c-7.3,0-11.4,4.1-11.4,11.4c0,22.6,0,45.3,0,67.9c0,0.8,0,1.6,0,2.5
			c1.3,0,2.2,0,3.1,0c19.8,0,39.7,0,59.5,0c7.6,0,13.3,4.4,15.3,11.7c0.7,2.6,1.3,5.1,2,7.7c1.5,5.8,4.1,7.8,10,7.8
			c17.8,0,35.6,0,53.4,0C273.2,279.2,274,279.2,275,279.2z M256.2,350c0,21.6,17.6,39.1,39.1,39.1c21.6,0,39.2-17.6,39.2-39.1
			c0-21.7-17.6-39.3-39.3-39.2C273.6,310.9,256.2,328.4,256.2,350z"/>
		<g>
			<path d="M175.5,337.9c0-4.6,0-9.2,0-13.8c0-3.1,1.1-4.2,4.3-4.2c2.3,0,4.7-0.1,7,0c7.9,0.2,13.4,4.6,15.1,12.4
				c1.2,5.4,1,10.7-1.6,15.7c-2.7,5.2-6.9,8.1-12.9,8.2c-2.5,0.1-5,0.1-7.5,0.1c-2.9,0-4.3-1.3-4.4-4.2
				C175.4,347.3,175.5,342.6,175.5,337.9z M182.4,349.2c6.4,0.8,9.7-0.4,11.7-4.1c2.4-4.4,2-11.9-0.9-15.6
				c-2.1-2.7-6.7-3.7-10.8-2.4C182.4,334.4,182.4,341.7,182.4,349.2z"/>
			<path d="M152.4,342.9c0,3.4,0,6.3,0,9.3c0,2.5-1.3,4-3.3,4c-2.1,0-3.5-1.5-3.5-4.1c0-9.7,0-19.4,0-29.1c0-2.6,1.1-3.9,3.6-4
				c3.2-0.1,6.5-0.1,9.8,0.1c6.2,0.6,10.8,5.9,10.7,12c-0.1,6.2-5.1,11.4-11.3,11.7C156.4,343,154.5,342.9,152.4,342.9z
				 M152.5,325.7c0,3.6,0,6.9,0,10.4c1.5,0,2.8,0,4.1,0c0.6,0,1.2,0,1.8-0.1c2.4-0.4,4.2-2.5,4.3-4.9c0.1-2.3-1.6-4.7-4-5.1
				C156.8,325.7,154.7,325.8,152.5,325.7z"/>
			<path d="M214.8,326c0,2.8,0,5.2,0,8c2.4,0,4.7,0,7,0c2.6,0,4.2,1.3,4.2,3.4c0,2.1-1.6,3.3-4.2,3.4c-2.1,0-4.2,0-6.4,0.1
				c-0.1,0-0.3,0.1-0.7,0.3c0,3.6,0,7.4,0,11.2c0,1.8-0.6,3.1-2.4,3.7c-2.2,0.7-4.4-0.8-4.4-3.2c-0.1-10.1-0.1-20.1,0-30.2
				c0-2.1,1.4-3.4,3.5-3.4c4-0.1,8-0.1,12,0c2.1,0,3.5,1.5,3.5,3.4c0,1.9-1.4,3.3-3.5,3.4C220.6,326.1,217.8,326,214.8,326z"/>
		</g>
		<path d="M251.7,204.1c0-4.5,0-8.8,0-13.5c-0.9,0-1.7,0-2.5,0c-6.1,0-12.1,0-18.2,0c-2.5,0-4-1.3-4.1-3.3c-0.1-2.1,1.5-3.5,4.1-3.5
			c7.1,0,14.2,0,21.4,0c3.9,0,6.1,2.3,6.2,6.3c0,4.8,0,9.5,0,14.3c0,4.5-2.2,6.6-6.7,6.6c-33.2,0-66.5,0-99.7,0c-0.2,0-0.3,0-0.5,0
			c-3.9-0.1-6.2-2.3-6.2-6.3c0-4.9,0-9.8,0-14.8c0-3.9,2.3-6.2,6.2-6.2c20.7,0,41.3,0,62,0c2.6,0,4,1.2,4,3.3
			c0.1,2.2-1.4,3.5-4.1,3.5c-19.5,0-38.9,0-58.4,0c-0.9,0-1.8,0-2.9,0c0,4.5,0,8.9,0,13.5C185.5,204.1,218.5,204.1,251.7,204.1z"/>
		<path d="M202.1,231.5c-17.1,0-34.2,0-51.3,0c-0.7,0-1.4,0-2,0c-1.9-0.2-3.3-1.7-3.2-3.5c0.1-1.9,1.2-3,3.1-3.3
			c0.6-0.1,1.2,0,1.8,0c34.4,0,68.7,0,103.1,0c0.6,0,1.2,0,1.8,0c1.9,0.2,3.3,1.7,3.2,3.5c-0.1,1.9-1.2,3-3.1,3.3
			c-0.7,0.1-1.4,0-2,0C236.3,231.5,219.2,231.5,202.1,231.5z"/>
		<path d="M202.1,245.1c-17.2,0-34.4,0-51.5,0c-0.8,0-1.5,0.1-2.3-0.1c-1.7-0.4-2.8-1.6-2.7-3.4c0.1-1.7,1.1-2.8,2.7-3.2
			c0.7-0.2,1.5-0.1,2.3-0.1c34.4,0,68.7,0,103.1,0c0.7,0,1.4-0.1,2,0.1c1.8,0.3,2.9,1.4,2.9,3.3c0,1.9-1.1,3.1-3,3.4
			c-0.7,0.1-1.5,0.1-2.3,0.1C236.3,245.1,219.2,245.1,202.1,245.1z"/>
		<path d="M236.2,251.9c6,0,12.1,0,18.1,0c2.7,0,4.2,1.2,4.3,3.3c0.1,2.2-1.6,3.5-4.3,3.5c-12.1,0-24.2,0-36.3,0
			c-2.7,0-4.2-1.2-4.3-3.3c-0.1-2.2,1.6-3.5,4.3-3.5C224.1,251.9,230.1,251.9,236.2,251.9z"/>
		<path d="M236.2,265.6c6,0,12.1,0,18.1,0c2.7,0,4.2,1.2,4.3,3.3c0.1,2.2-1.6,3.5-4.3,3.5c-12.1,0-24.2,0-36.3,0
			c-2.7,0-4.2-1.2-4.3-3.3c-0.1-2.2,1.6-3.5,4.3-3.5C224.1,265.6,230.1,265.6,236.2,265.6z"/>
		<path class="st0" d="M284.1,355.6c0-6.1,0-11.9,0-17.7c0-3,0-5.9,0-8.9c0-4,2.3-6.4,6.3-6.5c3.2-0.1,6.4-0.1,9.5,0
			c4.4,0.1,6.8,2.4,6.8,6.8c0,7.9,0,15.8,0,23.6c0,0.8,0,1.6,0,2.7c1.8,0,3.4,0,4.9,0c2.4,0.1,4.2,1.2,5.2,3.4
			c1,2.2,0.6,4.4-1.1,6.1c-5.4,5.4-10.8,10.9-16.2,16.2c-2.4,2.3-5.8,2.4-8.2,0c-5.5-5.4-11-10.9-16.4-16.4c-1.7-1.7-2-3.9-1-6.1
			c1-2.1,2.7-3.2,5-3.3C280.6,355.5,282.1,355.6,284.1,355.6z M299.9,329.5c-3.2,0-6.1,0-9,0c0,8,0,15.9,0,23.8
			c0,7.3-1.1,8.5-8.2,9.2c0,0-0.1,0.1,0,0c4.3,4.3,8.6,8.6,12.6,12.6c4-4.1,8.3-8.5,12.4-12.6c0.2,0-0.1,0-0.4,0
			c-5.4-0.1-7.4-2.1-7.4-7.5c0-6.4,0-12.9,0-19.3C299.9,333.6,299.9,331.6,299.9,329.5z"/>
	</g>
	<g>
		<g>
			<path class="st1" d="M53.4,18.6v12c0,0.5,0,0.9,0,1.1h1.9v3.7h-1.4l-1.2-1.5h-0.1c-0.8,1-1.8,1.5-3.1,1.5h-7.9l-1.2-1.5h-0.1
				c-0.8,1-1.8,1.5-3.1,1.5h-8.3c-0.2,3-1.3,5.2-3.4,6.7c-1.8,1.4-4.2,2.1-7,2.1h-3.6c-3.1,0-5.5-0.8-7.4-2.4c-2-1.7-3-4.1-3-7.3V28
				l2.3-1.8H9v8c0,2.3,0.6,3.9,1.7,4.9c1.2,0.9,3.2,1.4,6,1.4c2.8,0,4.7-0.4,5.9-1.3c1.3-1,1.9-2.6,1.9-5V22.8h4.5v8.9h6.8
				c0.6,0,0.9-0.3,0.9-0.9V20.7h4.5v9.9c0,0.5,0,0.9,0,1.2h6.9c0.6,0,0.9-0.3,0.9-0.9V18.6H53.4z"/>
			<path class="st1" d="M66,9.2v22.2c0,1-0.3,1.9-1,2.6c-0.8,0.9-1.7,1.4-3,1.4H55v-3.7h5.6c0.3,0,0.5-0.1,0.7-0.3
				c0.2-0.2,0.3-0.4,0.3-0.6V9.2H66z"/>
			<path class="st1" d="M75.6,9.2v21.6c0,0.2,0.1,0.4,0.2,0.6c0.1,0.2,0.4,0.3,0.7,0.3h1v3.7H75c-1,0-1.9-0.4-2.6-1.1
				c-0.9-0.8-1.3-1.8-1.3-3V9.2H75.6z"/>
			<path class="st1" d="M82,19.2c2.3-0.7,4.4-1.1,6.3-1.1c3,0,5.3,0.9,7.1,2.8c1.6,1.7,2.5,3.8,2.5,6.3v3.9v0.5h1.2v3.7h-0.8
				l-1.2-1.5h-0.1c-0.8,1-1.9,1.5-3.1,1.5H77.1v-3.7h15.4c0.6,0,0.9-0.3,0.9-0.9v-3.3c0-1.7-0.6-3-1.7-4c-1.1-1-2.6-1.5-4.4-1.5
				c-1.2,0-3,0.3-5.4,0.8V19.2z M87.1,38.1c0.7,0,1.2,0.2,1.7,0.7s0.7,1,0.7,1.7s-0.2,1.2-0.7,1.7c-0.5,0.5-1,0.7-1.7,0.7
				c-0.6,0-1.2-0.2-1.6-0.7c-0.5-0.5-0.7-1-0.7-1.7s0.2-1.2,0.7-1.7C85.9,38.3,86.5,38.1,87.1,38.1z"/>
			<path class="st1" d="M105.4,24.9c0-2.3,0.8-4.1,2.4-5.3c1.3-1,3-1.5,5.2-1.5c2.1,0,4,0.6,5.5,1.9c1.9,1.6,2.8,3.9,2.8,6.8
				c0,2.8-0.7,5.1-2.2,6.9c-1.4,1.8-3.3,2.7-5.6,2.7c-2,0-3.6-0.8-4.8-2.3c-0.8,0.8-1.7,1.2-2.9,1.2h-7v-3.7h5.6
				c0.3,0,0.5-0.1,0.7-0.3c0.2-0.2,0.3-0.4,0.3-0.6V24.9z M109.9,31.3c0.9,1,1.9,1.5,3.1,1.5c1.1,0,2.1-0.5,2.8-1.5
				c0.7-1,1.1-2.3,1.1-3.9c0-1.8-0.4-3.1-1.2-4.1c-0.7-0.9-1.7-1.3-2.9-1.3c-0.9,0-1.6,0.3-2.1,0.8c-0.6,0.5-0.9,1.3-0.9,2.2V31.3z"
				/>
			<path class="st1" d="M163.1,18.6v12.8c0,1-0.3,1.9-1,2.6c-0.8,1-1.8,1.4-3,1.4h-20.5c-1.6,0-3-0.5-4.1-1.5
				c-1.5-1.3-2.3-3-2.3-5.1v-5.8l2.3-1.8h2.2v7.6c0,0.9,0.3,1.6,0.9,2.1c0.6,0.5,1.2,0.8,1.9,0.8h18.2c0.6,0,0.9-0.3,0.9-0.9V18.6
				H163.1z M144.9,17.6c0.7,0,1.2,0.2,1.7,0.7c0.5,0.5,0.7,1,0.7,1.7s-0.2,1.2-0.7,1.7c-0.5,0.5-1,0.7-1.7,0.7
				c-0.6,0-1.2-0.2-1.6-0.7c-0.5-0.5-0.7-1-0.7-1.7s0.2-1.2,0.7-1.7C143.8,17.8,144.3,17.6,144.9,17.6z M150.6,17.6
				c0.6,0,1.2,0.2,1.6,0.7c0.5,0.5,0.7,1,0.7,1.7s-0.2,1.2-0.7,1.7c-0.5,0.5-1,0.7-1.6,0.7c-0.7,0-1.2-0.2-1.7-0.7
				c-0.5-0.5-0.7-1-0.7-1.7s0.2-1.2,0.7-1.7C149.3,17.8,149.9,17.6,150.6,17.6z"/>
			<path class="st1" d="M172.7,9.2v21.6c0,0.2,0.1,0.4,0.2,0.6c0.1,0.2,0.4,0.3,0.7,0.3h1v3.7h-2.4c-1,0-1.9-0.4-2.6-1.1
				c-0.9-0.8-1.3-1.8-1.3-3V9.2H172.7z"/>
			<path class="st1" d="M179.2,19.2c2.4-0.7,4.5-1.1,6.3-1.1c3,0,5.3,0.9,7.1,2.8c1.6,1.7,2.5,3.8,2.5,6.3v4.2c0,1-0.3,1.9-1,2.7
				c-0.8,0.9-1.8,1.3-2.9,1.3h-16.8v-3.7h15.4c0.6,0,0.9-0.3,0.9-0.9v-3.3c0-1.7-0.6-3.1-1.7-4c-1.1-1-2.6-1.5-4.6-1.5
				c-1.1,0-2.9,0.3-5.2,0.8V19.2z M184.3,38.1c0.7,0,1.2,0.2,1.7,0.7s0.7,1,0.7,1.7s-0.2,1.2-0.7,1.7c-0.5,0.5-1,0.7-1.7,0.7
				c-0.6,0-1.2-0.2-1.6-0.7c-0.5-0.5-0.7-1-0.7-1.7s0.2-1.2,0.7-1.7C183.1,38.3,183.6,38.1,184.3,38.1z"/>
			<path class="st1" d="M230.6,18.6v12.2c0,0.3,0.1,0.5,0.3,0.7c0.1,0.2,0.3,0.3,0.6,0.3h1v3.7h-2.3c-1.3,0-2.4-0.5-3.1-1.6
				c-0.6-0.8-0.8-1.6-0.8-2.5v-8.3c-2.5,0.5-4.2,2-5.1,4.5c-0.5,1.4-0.8,3.6-0.8,6.6v1.3h-2.2c-4.1,0-7.2-1-9.4-3.1
				c-2.1-2-3.1-4.6-3.1-8c0-0.8,0.1-1.6,0.2-2.5h4.1c0,0.6-0.1,1.2-0.1,1.7c0,2.3,0.6,4.2,1.7,5.5c1.1,1.3,2.7,2,4.7,2.1
				c0.1-4.2,1.6-7.4,4.3-9.6c2.3-2,5.1-2.9,8.4-2.9H230.6z"/>
			<path class="st1" d="M243.2,9.2v22.2c0,1-0.3,1.9-1,2.6c-0.8,0.9-1.7,1.4-3,1.4h-7.1v-3.7h5.6c0.3,0,0.5-0.1,0.7-0.3
				c0.2-0.2,0.3-0.4,0.3-0.6V9.2H243.2z"/>
			<path class="st1" d="M252.7,9.2v25.3l-2.3,1.8h-2.2V9.2H252.7z"/>
			<path class="st1" d="M265.6,35.4c-2.7,0-4.8-0.9-6.3-2.7c-1.3-1.6-1.9-3.5-1.9-5.8c0-2.7,0.8-4.9,2.3-6.4
				c1.6-1.6,3.7-2.3,6.2-2.3c1.8,0,3.4,0.5,4.8,1.4c1.8,1.3,2.6,3.1,2.6,5.4v6.8h1.2v3.7h-1.2c-0.2,2.6-1.1,4.7-2.8,6.2
				c-1.2,1-2.6,1.8-4.2,2.2c-1.1,0.3-2.3,0.4-3.4,0.4c-0.4,0-0.9,0-1.6-0.1h-0.1l-1.9-2.3v-1.6c1,0.2,1.9,0.3,2.8,0.3
				c4,0,6.2-1.7,6.6-5H265.6z M268.7,24.9c0-1-0.3-1.7-1-2.3c-0.6-0.5-1.2-0.7-2-0.7c-1.2,0-2.2,0.4-3,1.3s-1.1,2.1-1.1,3.6
				c0,1.5,0.4,2.7,1.2,3.6c0.8,0.9,1.9,1.3,3.3,1.3h2.5V24.9z"/>
			<path class="st1" d="M279,19.2c2.4-0.7,4.5-1.1,6.3-1.1c3,0,5.3,0.9,7.1,2.8c1.6,1.7,2.5,3.8,2.5,6.3v4.2c0,1-0.3,1.9-1,2.7
				c-0.8,0.9-1.8,1.3-2.9,1.3h-16.8v-3.7h15.4c0.6,0,0.9-0.3,0.9-0.9v-3.3c0-1.7-0.6-3.1-1.7-4c-1.1-1-2.6-1.5-4.6-1.5
				c-1.1,0-2.9,0.3-5.2,0.8V19.2z"/>
			<path class="st1" d="M317.1,35.3c-1,0.3-2.1,0.4-3.1,0.4c-2.6,0-4.7-1-6.3-3c-1.3-1.7-2-3.7-2-6c0-2.5,0.7-4.6,2.2-6.1
				c1.5-1.7,3.6-2.5,6.3-2.5c2,0,3.6,0.5,4.9,1.5c1.7,1.2,2.5,3,2.5,5.3v9.6c0,3.1-1,5.6-3,7.3c-1.1,1-2.6,1.7-4.3,2.1
				c-0.9,0.2-1.8,0.3-2.9,0.3c-0.3,0-0.7,0-1.3-0.1l-1.8-2.2v-1.6c0.8,0.1,1.5,0.2,2.3,0.2C314.6,40.4,316.7,38.7,317.1,35.3z
				 M317.1,24.9c0-1-0.4-1.9-1.1-2.4c-0.5-0.4-1.1-0.6-1.9-0.6c-1.3,0-2.3,0.4-3,1.3c-0.7,0.9-1.1,2.1-1.1,3.6
				c0,1.6,0.4,2.8,1.2,3.8c0.8,0.9,1.9,1.4,3.3,1.4c0.8,0,1.6-0.1,2.4-0.4V24.9z"/>
			<path class="st1" d="M337.3,29.1v5.1c0,2.3,0.6,3.9,1.7,4.9c1.2,0.9,3.2,1.4,6,1.4c2.5,0,4.2-0.3,5.3-1c1.3-0.8,2.1-2.1,2.3-4.1
				h-2.3l-1.9-2.3v-1.4h10.1v3.7h-1.4c-0.2,3.1-1.4,5.3-3.7,6.9c-1.8,1.2-4,1.9-6.7,1.9h-3.6c-3.1,0-5.5-0.8-7.4-2.4
				c-2-1.7-3-4.1-3-7.3v-3.7l2.3-1.8H337.3z"/>
			<path class="st1" d="M394.3,18.6v12.8c0,1.1-0.4,2-1.2,2.8c-0.8,0.8-1.7,1.2-2.8,1.2h-7.7l-1.4-1.5h-0.1c-0.8,1-1.8,1.5-3.1,1.5
				h-7.7l-1.4-1.5H369c-0.8,1-1.8,1.5-3.1,1.5h-10.4v-3.7h9c0.6,0,0.9-0.3,0.9-0.9v-8h4.5v7.3c0,0.7,0,1.2,0,1.6h6.9
				c0.6,0,0.9-0.3,0.9-0.9V20.7h4.5v9.8c0,0.1,0,0.4,0,0.7c0,0.3,0,0.5,0,0.6h6.9c0.6,0,0.9-0.3,0.9-0.9V18.6H394.3z M377.1,10.5
				c0.7,0,1.2,0.2,1.7,0.7c0.5,0.5,0.7,1,0.7,1.7c0,0.6-0.2,1.2-0.7,1.6c-0.5,0.5-1,0.7-1.7,0.7c-0.6,0-1.2-0.2-1.6-0.7
				s-0.7-1-0.7-1.6c0-0.7,0.2-1.2,0.7-1.7C375.9,10.8,376.5,10.5,377.1,10.5z M379.9,6.1c0.6,0,1.1,0.2,1.6,0.6
				c0.4,0.4,0.6,0.9,0.6,1.6s-0.2,1.1-0.6,1.5c-0.4,0.4-0.9,0.6-1.6,0.6s-1.1-0.2-1.5-0.6c-0.4-0.4-0.6-0.9-0.6-1.5s0.2-1.1,0.6-1.6
				C378.8,6.3,379.3,6.1,379.9,6.1z M382.7,10.5c0.7,0,1.2,0.2,1.7,0.7c0.5,0.5,0.7,1,0.7,1.7c0,0.6-0.2,1.2-0.7,1.6s-1,0.7-1.7,0.7
				c-0.7,0-1.2-0.2-1.7-0.7c-0.5-0.5-0.7-1-0.7-1.6c0-0.7,0.2-1.2,0.7-1.7C381.5,10.8,382,10.5,382.7,10.5z"/>
			<path class="st1" d="M403.9,9.2v25.3l-2.3,1.8h-2.2V9.2H403.9z"/>
			<path class="st1" d="M416.7,35.4c-2.7,0-4.8-0.9-6.3-2.7c-1.3-1.6-1.9-3.5-1.9-5.8c0-2.7,0.8-4.9,2.3-6.4
				c1.6-1.6,3.7-2.3,6.2-2.3c1.8,0,3.4,0.5,4.8,1.4c1.8,1.3,2.6,3.1,2.6,5.4v6.8h1.2v3.7h-1.2c-0.2,2.6-1.1,4.7-2.8,6.2
				c-1.2,1-2.6,1.8-4.2,2.2c-1.1,0.3-2.3,0.4-3.4,0.4c-0.4,0-0.9,0-1.6-0.1h-0.1l-1.9-2.3v-1.6c1,0.2,1.9,0.3,2.8,0.3
				c4,0,6.2-1.7,6.6-5H416.7z M419.9,24.9c0-1-0.3-1.7-1-2.3c-0.6-0.5-1.2-0.7-2-0.7c-1.2,0-2.2,0.4-3,1.3s-1.1,2.1-1.1,3.6
				c0,1.5,0.4,2.7,1.2,3.6s1.9,1.3,3.3,1.3h2.5V24.9z"/>
			<path class="st1" d="M430.1,19.2c2.4-0.7,4.5-1.1,6.3-1.1c3,0,5.3,0.9,7.1,2.8c1.6,1.7,2.5,3.8,2.5,6.3v4.2c0,1-0.3,1.9-1,2.7
				c-0.8,0.9-1.8,1.3-2.9,1.3h-16.8v-3.7h15.4c0.6,0,0.9-0.3,0.9-0.9v-3.3c0-1.7-0.6-3.1-1.7-4c-1.1-1-2.6-1.5-4.6-1.5
				c-1.1,0-2.9,0.3-5.2,0.8V19.2z"/>
			<path class="st1" d="M94.1,90.4H76.8v-3l8.5-9.2c1.4-1.5,2.3-2.8,2.9-3.7c0.5-1,0.8-1.9,0.8-2.9c0-1.2-0.3-2.1-1-2.9
				c-0.7-0.8-1.6-1.2-2.8-1.2c-1.5,0-2.7,0.4-3.4,1.3s-1.1,2-1.1,3.5h-4.2l0-0.1c-0.1-2.3,0.7-4.3,2.3-5.8c1.6-1.6,3.7-2.4,6.5-2.4
				c2.5,0,4.5,0.7,5.9,2.1c1.5,1.4,2.2,3.2,2.2,5.4c0,1.5-0.4,2.9-1.3,4.3s-2.1,3-3.9,5l-5.8,6.1l0.1,0.1h11.7V90.4z"/>
			<path class="st1" d="M112.3,81.1h3.3v3.5h-3.3v5.8H108v-5.8H96.8L96.7,82l11.1-17.6h4.5V81.1z M101,81.1h7V70.6l-0.1,0l-0.4,0.8
				L101,81.1z"/>
			<path class="st1" d="M129.4,90.4H125V68.5h-5.3v-3.2l9.6-0.9V90.4z"/>
			<path class="st1" d="M176.3,86.7v3.7H154c-0.9,0-1.6,0.2-2.2,0.6c-0.5,0.4-0.8,1-0.8,1.7c0,0.5,0.2,1,0.5,1.3
				c0.4,0.4,0.9,0.6,1.6,0.6h16V96l-1.8,2.3h-15c-2,0-3.5-0.6-4.6-1.9c-0.8-1-1.2-2.1-1.2-3.6c0-1.8,0.6-3.2,1.7-4.3
				c1.3-1.2,3-1.8,5.1-1.8H176.3z"/>
			<path class="st1" d="M210,73.6v12.8c0,1.1-0.4,2-1.2,2.8c-0.8,0.8-1.7,1.2-2.8,1.2h-7.7l-1.4-1.5h-0.1c-0.8,1-1.8,1.5-3.1,1.5
				h-7.7l-1.4-1.5h-0.1c-0.8,1-1.8,1.5-3.1,1.5h-10.4v-3.7h9c0.6,0,0.9-0.3,0.9-0.9v-8h4.5v7.3c0,0.7,0,1.2,0,1.6h6.9
				c0.6,0,0.9-0.3,0.9-0.9V75.7h4.5v9.8c0,0.1,0,0.4,0,0.7c0,0.3,0,0.5,0,0.6h6.9c0.6,0,0.9-0.3,0.9-0.9V73.6H210z"/>
			<path class="st1" d="M231.4,64c0.9,0,1.8,0.1,2.7,0.3c0.9,0.2,1.6,0.5,2.3,0.8l-0.8,3.3c-0.7-0.3-1.3-0.5-1.9-0.7
				c-0.6-0.2-1.4-0.2-2.2-0.2c-1.7,0-3.1,0.7-4.2,2c-1.1,1.3-1.6,3.2-1.6,5.4v0.1c0.7-0.7,1.5-1.2,2.5-1.5c0.9-0.4,2-0.5,3.1-0.5
				c2.3,0,4.2,0.8,5.5,2.4c1.4,1.6,2,3.7,2,6.2c0,2.7-0.8,4.8-2.3,6.5c-1.5,1.7-3.6,2.6-6.1,2.6c-2.6,0-4.8-0.9-6.5-2.8
				s-2.5-4.5-2.5-7.8v-5c0-3.4,1-6.1,2.9-8.2C226.1,65,228.5,64,231.4,64z M230.2,76.4c-1.1,0-2,0.2-2.8,0.6s-1.3,0.9-1.8,1.6v1.9
				c0,2.2,0.4,3.9,1.3,5.1c0.9,1.2,2,1.8,3.4,1.8c1.3,0,2.3-0.5,3-1.6c0.7-1.1,1.1-2.4,1.1-4c0-1.6-0.4-2.8-1.1-3.8
				C232.5,76.9,231.5,76.4,230.2,76.4z"/>
			<path class="st1" d="M259,80.4c0,3.4-0.8,6-2.3,7.7c-1.5,1.8-3.6,2.7-6.2,2.7c-2.6,0-4.7-0.9-6.3-2.7c-1.5-1.8-2.3-4.4-2.3-7.7
				v-6c0-3.4,0.8-6,2.3-7.7c1.5-1.8,3.6-2.7,6.2-2.7c2.6,0,4.7,0.9,6.2,2.7s2.3,4.4,2.3,7.7V80.4z M254.6,73.8
				c0-2.1-0.4-3.7-1.1-4.7s-1.8-1.5-3.1-1.5c-1.4,0-2.4,0.5-3.1,1.5c-0.7,1-1.1,2.6-1.1,4.7V81c0,2.1,0.4,3.7,1.1,4.8
				c0.7,1,1.8,1.5,3.1,1.5c1.4,0,2.4-0.5,3.1-1.5c0.7-1,1.1-2.6,1.1-4.8V73.8z"/>
			<path class="st1" d="M294.4,73.6v12.2c0,0.3,0.1,0.5,0.3,0.7c0.1,0.2,0.3,0.3,0.6,0.3h1v3.7h-2.3c-1.3,0-2.4-0.5-3.1-1.6
				c-0.6-0.8-0.8-1.6-0.8-2.5v-8.3c-2.5,0.5-4.2,2-5.1,4.5c-0.5,1.4-0.8,3.6-0.8,6.6v1.3h-2.2c-4.1,0-7.2-1-9.4-3.1
				c-2.1-2-3.1-4.6-3.1-8c0-0.8,0.1-1.6,0.2-2.5h4.1c0,0.6-0.1,1.2-0.1,1.7c0,2.3,0.6,4.2,1.7,5.5c1.1,1.3,2.7,2,4.7,2.1
				c0.1-4.2,1.6-7.4,4.3-9.6c2.3-2,5.1-2.9,8.4-2.9H294.4z"/>
			<path class="st1" d="M300.8,74.2c2.3-0.7,4.4-1.1,6.3-1.1c3,0,5.3,0.9,7.1,2.8c1.6,1.7,2.5,3.8,2.5,6.3v3.9v0.5h1.2v3.7h-0.8
				l-1.2-1.5h-0.1c-0.8,1-1.9,1.5-3.1,1.5h-16.8v-3.7h15.4c0.6,0,0.9-0.3,0.9-0.9v-3.3c0-1.7-0.6-3-1.7-4c-1.1-1-2.6-1.5-4.4-1.5
				c-1.2,0-3,0.3-5.4,0.8V74.2z"/>
			<path class="st1" d="M324.9,86.7c-1.1-1.5-1.6-3.2-1.6-5.3c0-1.9,0.5-3.5,1.4-4.9c1.5-2.2,3.8-3.4,6.7-3.4c2.2,0,4,0.7,5.5,2.1
				c1.7,1.6,2.6,3.7,2.6,6.2c0,2-0.5,3.8-1.6,5.3h2.5v3.7h-5.5c-1.6,0-2.7-0.2-3.4-0.5h-0.2c-0.7,0.3-1.8,0.5-3.4,0.5h-10.2v-3.7
				H324.9z M331.4,86.7c1.1-0.1,2-0.6,2.7-1.5c0.7-0.9,1-2,1-3.4c0-1.5-0.3-2.6-1-3.5c-0.7-0.9-1.6-1.3-2.7-1.3
				c-1.1,0-2,0.4-2.7,1.3s-1,2.1-1,3.5c0,1.4,0.3,2.5,1,3.4C329.4,86,330.3,86.5,331.4,86.7z M331.5,65.5c0.6,0,1.2,0.2,1.6,0.7
				c0.5,0.5,0.7,1,0.7,1.7c0,0.6-0.2,1.2-0.7,1.6c-0.5,0.5-1,0.7-1.6,0.7c-0.7,0-1.2-0.2-1.7-0.7s-0.7-1-0.7-1.6
				c0-0.7,0.2-1.2,0.7-1.7C330.2,65.8,330.8,65.5,331.5,65.5z"/>
			<path class="st1" d="M351.1,79.7c3.3-4.4,7.3-6.6,12.1-6.6c2.9,0,5.3,0.9,7.2,2.7c1.7,1.7,2.6,3.8,2.6,6.3v4.2
				c0,1.1-0.4,2-1.1,2.8c-0.8,0.8-1.7,1.2-2.8,1.2h-29v-3.7h6.6V73.6h4.4V79.7z M368.6,82.4c0-1.5-0.5-2.7-1.5-3.7
				c-1.2-1.2-2.7-1.8-4.6-1.8c-1.9,0-3.7,0.6-5.5,1.9c-2.4,1.7-4.4,4.3-5.9,7.9h16.6c0.6,0,0.9-0.3,0.9-0.9V82.4z"/>
		</g>
	</g>
</g>
</svg>
