<svg version="1.1" id="Layer_1" xmlns="http://www.w3.org/2000/svg" xmlns:xlink="http://www.w3.org/1999/xlink" x="0px" y="0px"
	 width="100%" viewBox="0 0 64 64" enable-background="new 0 0 64 64" xml:space="preserve">
<path fill="#000000" opacity="1.000000" stroke="none" 
	d="
M15.000000,65.000000 
	C10.333334,64.666664 5.666667,64.333328 1.296671,63.347351 
	C13.288780,52.317581 14.684833,50.507408 13.496558,46.850056 
	C9.277595,50.276779 5.138798,53.638390 1.000000,57.000000 
	C1.000000,52.643101 1.000000,48.286201 1.296670,43.312004 
	C5.038251,39.325111 8.543690,36.013474 11.874515,32.534653 
	C12.503891,31.877316 12.439050,30.555296 12.694538,29.539976 
	C11.574332,29.738001 10.201195,29.592033 9.379581,30.196152 
	C6.484174,32.325089 3.777973,34.711349 1.000000,37.000000 
	C1.000000,32.643101 1.000000,28.286201 1.298019,23.310806 
	C3.963258,19.969374 8.324299,18.345238 7.513524,13.034518 
	C4.832711,14.666617 2.916355,15.833309 1.000000,17.000000 
	C1.000000,11.699287 1.000000,6.398574 1.000000,1.000000 
	C19.354126,1.000000 37.708405,1.000000 56.495514,1.336697 
	C56.375633,3.275983 55.822926,4.878571 55.270214,6.481159 
	C55.795479,6.811755 56.320744,7.142351 56.846008,7.472947 
	C58.897339,5.315298 60.948669,3.157650 63.000000,1.000000 
	C63.666668,1.466260 64.891304,1.909592 64.911560,2.402415 
	C65.070908,6.280188 65.000000,10.167423 64.702850,14.678062 
	C60.750317,20.057409 57.094929,24.810436 53.284962,29.701485 
	C52.924191,30.029137 52.733536,30.233286 52.364704,30.596378 
	C51.932243,30.954229 51.715061,31.187708 51.332756,31.589754 
	C50.914886,31.953650 50.704201,32.187500 50.328056,32.588943 
	C49.911552,32.953796 49.701412,33.187832 49.326294,33.589184 
	C48.911144,33.953655 48.701809,34.187424 48.326775,34.588348 
	C47.909966,34.952759 47.700142,35.186985 47.197128,35.585258 
	C43.718826,38.472984 38.452576,39.012615 37.242004,43.802299 
	C37.726791,44.333565 38.211575,44.864834 38.696362,45.396099 
	C41.841038,42.300144 44.985714,39.204189 48.325783,35.972336 
	C48.766541,35.629440 48.969437,35.386917 49.325447,34.972763 
	C49.766613,34.629375 49.969734,34.386570 50.325790,33.972351 
	C50.766537,33.629467 50.969421,33.386948 51.325317,32.972916 
	C51.766300,32.629852 51.969284,32.387207 52.325294,31.972904 
	C52.766415,31.629585 52.969482,31.386805 53.322212,30.975216 
	C53.756268,30.639311 53.955383,30.400930 54.386383,29.938835 
	C58.107368,26.833899 61.553684,23.916948 65.000000,21.000000 
	C65.000000,25.356899 65.000000,29.713799 64.702988,34.687431 
	C54.821186,42.811962 49.108490,54.206879 38.684875,60.916859 
	C37.432671,61.722939 36.877983,63.612579 36.000000,65.000000 
	C31.310745,65.000000 26.621489,65.000000 21.507946,64.662834 
	C22.641167,62.261589 24.198675,60.197510 26.372524,57.316628 
	C19.959578,57.289963 17.982443,61.889313 15.000000,65.000000 
M29.978035,29.457701 
	C29.392550,30.045008 28.658453,30.545252 28.252699,31.237852 
	C27.422558,32.654865 26.768808,34.175213 26.042419,35.653004 
	C27.657990,34.991745 29.656160,34.728447 30.826082,33.603657 
	C37.639839,27.052774 44.302902,20.342283 50.900246,13.572059 
	C51.974026,12.470138 52.466408,10.801661 53.227516,9.395051 
	C52.617485,8.960792 52.007454,8.526531 51.397423,8.092272 
	C44.422771,15.049115 37.448120,22.005959 29.978035,29.457701 
M18.511906,20.927696 
	C17.590303,21.883055 16.508604,22.735716 15.805751,23.831396 
	C15.367856,24.514034 15.502551,25.563974 15.380277,26.449076 
	C16.256117,26.438963 17.490896,26.803684 17.952833,26.361336 
	C23.145636,21.388781 28.219608,16.292137 33.325512,11.228837 
	C32.936344,10.654508 32.547176,10.080178 32.158012,9.505849 
	C30.827345,10.102414 29.238247,10.415277 28.214033,11.348258 
	C25.026737,14.251644 22.053553,17.390079 18.511906,20.927696 
z"/>
<path fill="#000000" opacity="1.000000" stroke="none" 
	d="
M65.000000,41.000000 
	C65.000000,45.356899 65.000000,49.713799 64.704330,54.689377 
	C61.272446,58.538708 58.136227,61.769356 55.000000,65.000000 
	C50.643101,65.000000 46.286201,65.000000 41.511097,64.659424 
	C46.656944,58.474800 52.142380,52.552738 57.825214,46.826580 
	C59.983002,44.652344 62.595016,42.928909 65.000000,41.000000 
z"/>
<path fill="#2D2D2D" opacity="1.000000" stroke="none" 
	d="
M65.000000,40.571537 
	C62.595016,42.928909 59.983002,44.652344 57.825214,46.826580 
	C52.142380,52.552738 46.656944,58.474800 41.046448,64.659424 
	C39.611111,65.000000 38.222221,65.000000 36.416664,65.000000 
	C36.877983,63.612579 37.432671,61.722939 38.684875,60.916859 
	C49.108490,54.206879 54.821186,42.811962 64.702988,35.152084 
	C65.000000,36.714359 65.000000,38.428715 65.000000,40.571537 
z"/>
<path fill="#2D2D2D" opacity="1.000000" stroke="none" 
	d="
M1.000000,57.428463 
	C5.138798,53.638390 9.277595,50.276779 13.496558,46.850056 
	C14.684833,50.507408 13.288780,52.317581 1.296671,62.847351 
	C1.000000,61.285641 1.000000,59.571285 1.000000,57.428463 
z"/>
<path fill="#2D2D2D" opacity="1.000000" stroke="none" 
	d="
M1.000000,37.428463 
	C3.777973,34.711349 6.484174,32.325089 9.379581,30.196152 
	C10.201195,29.592033 11.574332,29.738001 12.694538,29.539976 
	C12.439050,30.555296 12.503891,31.877316 11.874515,32.534653 
	C8.543690,36.013474 5.038251,39.325111 1.296670,42.847351 
	C1.000000,41.285641 1.000000,39.571285 1.000000,37.428463 
z"/>
<path fill="#2F2F2F" opacity="1.000000" stroke="none" 
	d="
M55.486565,65.000000 
	C58.136227,61.769356 61.272446,58.538708 64.704330,55.154030 
	C65.000000,58.252457 65.000000,61.504913 65.000000,65.000000 
	C61.993404,65.000000 58.983265,65.000000 55.486565,65.000000 
z"/>
<path fill="#2D2D2D" opacity="1.000000" stroke="none" 
	d="
M65.000000,20.571537 
	C61.553684,23.916948 58.107368,26.833899 54.220226,29.795746 
	C53.779400,29.840639 53.439541,29.563465 53.439541,29.563465 
	C57.094929,24.810436 60.750317,20.057409 64.702850,15.152191 
	C65.000000,16.714357 65.000000,18.428717 65.000000,20.571537 
z"/>
<path fill="#2D2D2D" opacity="1.000000" stroke="none" 
	d="
M15.428463,65.000000 
	C17.982443,61.889313 19.959578,57.289963 26.372524,57.316628 
	C24.198675,60.197510 22.641167,62.261589 21.041828,64.662834 
	C19.285641,65.000000 17.571283,65.000000 15.428463,65.000000 
z"/>
<path fill="#2D2D2D" opacity="1.000000" stroke="none" 
	d="
M1.000000,17.428463 
	C2.916355,15.833309 4.832711,14.666617 7.513524,13.034518 
	C8.324299,18.345238 3.963258,19.969374 1.298019,22.846153 
	C1.000000,21.285643 1.000000,19.571283 1.000000,17.428463 
z"/>
<path fill="#2D2D2D" opacity="1.000000" stroke="none" 
	d="
M62.571537,1.000000 
	C60.948669,3.157650 58.897339,5.315298 56.846008,7.472947 
	C56.320744,7.142351 55.795479,6.811755 55.270214,6.481159 
	C55.822926,4.878571 56.375633,3.275983 56.964172,1.336697 
	C58.714359,1.000000 60.428715,1.000000 62.571537,1.000000 
z"/>
<path fill="#2D2D2D" opacity="1.000000" stroke="none" 
	d="
M30.225752,29.210251 
	C37.448120,22.005959 44.422771,15.049115 51.397423,8.092272 
	C52.007454,8.526531 52.617485,8.960792 53.227516,9.395051 
	C52.466408,10.801661 51.974026,12.470138 50.900246,13.572059 
	C44.302902,20.342283 37.639839,27.052774 30.826082,33.603657 
	C29.656160,34.728447 27.657990,34.991745 26.042419,35.653004 
	C26.768808,34.175213 27.422558,32.654865 28.252699,31.237852 
	C28.658453,30.545252 29.392550,30.045008 30.225752,29.210251 
z"/>
<path fill="#2D2D2D" opacity="1.000000" stroke="none" 
	d="
M18.754614,20.682522 
	C22.053553,17.390079 25.026737,14.251644 28.214033,11.348258 
	C29.238247,10.415277 30.827345,10.102414 32.158012,9.505849 
	C32.547176,10.080178 32.936344,10.654508 33.325512,11.228837 
	C28.219608,16.292137 23.145636,21.388781 17.952833,26.361336 
	C17.490896,26.803684 16.256117,26.438963 15.380277,26.449076 
	C15.502551,25.563974 15.367856,24.514034 15.805751,23.831396 
	C16.508604,22.735716 17.590303,21.883055 18.754614,20.682522 
z"/>
<path fill="#2D2D2D" opacity="1.000000" stroke="none" 
	d="
M48.130390,36.108234 
	C44.985714,39.204189 41.841038,42.300144 38.696362,45.396099 
	C38.211575,44.864834 37.726791,44.333565 37.242004,43.802299 
	C38.452576,39.012615 43.718826,38.472984 47.350418,35.756966 
	C47.817745,35.783295 48.130390,36.108234 48.130390,36.108234 
z"/>
<path fill="#2D2D2D" opacity="1.000000" stroke="none" 
	d="
M49.129864,35.108868 
	C48.969437,35.386917 48.766541,35.629440 48.325783,35.972336 
	C48.130390,36.108234 47.817745,35.783295 47.664455,35.611588 
	C47.700142,35.186985 47.909966,34.952759 48.478676,34.757843 
	C48.816715,34.778484 49.129864,35.108868 49.129864,35.108868 
z"/>
<path fill="#2D2D2D" opacity="1.000000" stroke="none" 
	d="
M48.664818,34.608986 
	C48.701809,34.187424 48.911144,33.953655 49.479454,33.760811 
	C49.817989,33.783432 50.130398,34.108246 50.130398,34.108246 
	C49.969734,34.386570 49.766613,34.629375 49.325447,34.972763 
	C49.129864,35.108868 48.816715,34.778484 48.664818,34.608986 
z"/>
<path fill="#2D2D2D" opacity="1.000000" stroke="none" 
	d="
M51.129837,33.108898 
	C50.969421,33.386948 50.766537,33.629467 50.325790,33.972351 
	C50.130398,34.108246 49.817989,33.783432 49.664825,33.611801 
	C49.701412,33.187832 49.911552,32.953796 50.479671,32.758366 
	C50.817253,32.778664 51.129837,33.108898 51.129837,33.108898 
z"/>
<path fill="#2D2D2D" opacity="1.000000" stroke="none" 
	d="
M50.665638,32.609238 
	C50.704201,32.187500 50.914886,31.953650 51.482986,31.758839 
	C51.819897,31.779404 52.129745,32.108990 52.129745,32.108990 
	C51.969284,32.387207 51.766300,32.629852 51.325317,32.972916 
	C51.129837,33.108898 50.817253,32.778664 50.665638,32.609238 
z"/>
<path fill="#2D2D2D" opacity="1.000000" stroke="none" 
	d="
M51.669666,31.610321 
	C51.715061,31.187708 51.932243,30.954229 52.506317,30.765064 
	C52.841652,30.789328 53.130043,31.108473 53.130043,31.108473 
	C52.969482,31.386805 52.766415,31.629585 52.325294,31.972904 
	C52.129745,32.108990 51.819897,31.779404 51.669666,31.610321 
z"/>
<path fill="#2D2D2D" opacity="1.000000" stroke="none" 
	d="
M53.945557,29.983730 
	C53.955383,30.400930 53.756268,30.639311 53.322212,30.975216 
	C53.130043,31.108473 52.841652,30.789328 52.700039,30.620640 
	C52.733536,30.233286 52.924191,30.029137 53.284962,29.701485 
	C53.439541,29.563465 53.779400,29.840639 53.945557,29.983730 
z"/>
</svg>