<?xml version="1.0" encoding="utf-8"?>
<!-- Generator: Adobe Illustrator 25.4.1, SVG Export Plug-In . SVG Version: 6.00 Build 0)  -->
<svg version="1.1" id="Layer_1" xmlns="http://www.w3.org/2000/svg" xmlns:xlink="http://www.w3.org/1999/xlink" x="0px" y="0px"
	 viewBox="0 0 972 978" style="enable-background:new 0 0 972 978;" xml:space="preserve">
<style type="text/css">
	.st0{fill:#10A8E3;enable-background:new    ;}
	.st1{fill:#FFFFFF;}
</style>
<g>
	<path class="st0" d="M896.2,962H75.8C41.3,962,13,933.7,13,899.2V78.8C13,44.3,41.3,16,75.8,16h820.3c34.6,0,62.9,28.3,62.9,62.9
		v820.3C959,933.7,930.7,962,896.2,962z"/>
	<g>
		<g>
			<g>
				<path class="st1" d="M635.9,311.2c-17.9-29-46.8-45.7-79.1-45.7c-16.7,0-42.3,4.8-70.9,26.9c-28.6-22.1-54.1-26.9-70.9-26.9
					c-32.3,0-61.1,16.6-79.1,45.7c-21.6,34.9-22.9,80.6-3.5,119.3c43.6,87.2,138.5,119.7,142.6,121.1l4.4,1.5v152.9
					c0,3.6,2.9,6.6,6.6,6.6c3.6,0,6.6-2.9,6.6-6.6V553l4.4-1.5c4-1.3,98.9-33.8,142.6-121.1C658.9,391.8,657.5,346,635.9,311.2z
					 M627.8,424.6c-41.2,82.4-131.2,113.2-135,114.5l-6.8,2.3l-6.8-2.3c-3.8-1.3-93.8-32-135-114.5c-17.3-34.7-16.2-75.5,3-106.5
					c15.5-25.1,40.2-39.4,67.9-39.4c15.4,0,39.5,4.7,66.7,27.2c2.4,2,5.9,2,8.4,0c27.2-22.5,51.3-27.2,66.7-27.2
					c27.7,0,52.4,14.4,67.9,39.5C644,349.1,645.1,389.9,627.8,424.6z"/>
			</g>
		</g>
		<g>
			<g>
				<path class="st1" d="M623,353.2c-4.5-20.9-15.6-38.3-31.2-48.9c-14.9-10.1-32.4-13.2-50.7-8.9c-18.6,4.4-37,16-55,34.6
					c-18-18.6-36.4-30.2-55-34.6c-18.3-4.3-35.9-1.3-50.7,8.9c-15.6,10.7-26.7,28-31.2,48.9c-4.6,21.5-1.6,44.5,8.5,64.8
					c20.2,40.3,53.4,67.2,77.8,82.8c26.3,16.7,47.7,24,48.6,24.3c1.3,0.4,2.8,0.4,4.1,0c2.1-0.7,52.8-17.9,93.9-61.2
					c2.5-2.6,2.4-6.8-0.2-9.3c-2.6-2.5-6.8-2.4-9.3,0.2c-34.3,36.1-76.7,53.4-86.5,57.1c-13-4.9-83.9-34-116.7-99.7
					c-8.8-17.6-11.5-37.6-7.4-56.2c3.7-17.3,13.2-32.2,25.8-40.8c11.7-8,25.7-10.4,40.3-6.9c17.6,4.1,35.5,16.2,53.1,35.8
					c2.6,2.9,7.2,2.9,9.8,0c17.7-19.6,35.5-31.7,53.1-35.8c14.7-3.5,28.6-1.1,40.3,6.9c12.7,8.6,22.1,23.5,25.8,40.8
					c4,18.6,1.4,38.5-7.4,56.2c-3,6.1-6.6,12.1-10.4,17.9c-2,3-1.2,7.1,1.8,9.1c3,2,7.1,1.2,9.1-1.8c4.2-6.2,7.9-12.7,11.2-19.3
					C624.6,397.7,627.6,374.7,623,353.2z"/>
			</g>
		</g>
		<g>
			<g>
				<path class="st1" d="M588.3,340.6c-4.4-7.1-14.4-19.1-31.4-19.1c-16.6,0-36.1,11.5-54.9,32.5L486,371.6l-15.9-17.7
					c-18.8-20.9-38.3-32.5-54.9-32.5c-17.1,0-27,12-31.4,19.1c-11.3,18.2-11.7,43.7-1.1,64.8c26.2,52.3,79.2,79.8,100.8,89.2
					c1.7,0.7,3.6,0.7,5.2,0c7.7-3.3,19.7-9.1,33-17.6c21.4-13.6,50.5-37.1,67.8-71.7C600,384.3,599.6,358.8,588.3,340.6z
					 M577.7,399.6c-15.9,31.9-43.1,53.7-63.1,66.5c-11.2,7.1-21.3,12.2-28.6,15.5c-21.7-9.8-68.5-35.4-91.7-81.9
					c-8.6-17.2-8.4-37.6,0.5-52.1c3-4.8,9.6-12.9,20.3-12.9c12.6,0,29.1,10.2,45.2,28.1l20.8,23.1c2.6,2.9,7.2,2.9,9.8,0l20.8-23.1
					c16.1-17.9,32.6-28.1,45.2-28.1c10.7,0,17.3,8.1,20.3,12.9C586.1,361.9,586.3,382.4,577.7,399.6z"/>
			</g>
		</g>
		<g>
			<g>
				<path class="st1" d="M600.8,594.5c-0.9-1.9-2.6-3.1-4.6-3.5c-18.3-11.3-41.2-12.4-60.5-2.9c-19.3,9.5-32.4,28.4-34.6,49.8
					c-1.8,3.8,0.4,8.4,4.5,9.3c10,6.2,21.5,9.4,33,9.4c9.4,0,18.9-2.1,27.6-6.4c19.3-9.5,32.4-28.4,34.6-49.8
					C601.6,598.5,601.7,596.4,600.8,594.5z M541.5,599.8c12-5.9,25.8-6.6,38.2-2.2l-63.3,31.2C520.5,616.3,529.5,605.8,541.5,599.8z
					 M560.4,638.3c-12,5.9-25.8,6.6-38.2,2.2l63.3-31.2C581.4,621.8,572.4,632.4,560.4,638.3z"/>
			</g>
		</g>
		<g>
			<g>
				<path class="st1" d="M470.9,637.9c-2.2-21.3-15.3-40.3-34.6-49.8c-19.3-9.5-42.3-8.3-60.5,2.9c-4.1,0.9-6.4,5.5-4.6,9.3
					c2.2,21.3,15.3,40.3,34.6,49.8c8.7,4.3,18.1,6.4,27.6,6.4c11.5,0,23-3.1,33-9.4C470.5,646.3,472.7,641.7,470.9,637.9z
					 M411.6,638.3c-12-5.9-21-16.5-25.1-28.9l63.3,31.2C437.4,644.9,423.6,644.2,411.6,638.3z M392.3,597.6
					c12.4-4.3,26.2-3.7,38.2,2.2c12,5.9,21,16.5,25.1,28.9L392.3,597.6z"/>
			</g>
		</g>
	</g>
</g>
</svg>
