<?xml version="1.0" encoding="utf-8"?>
<!-- Generator: Adobe Illustrator 25.4.1, SVG Export Plug-In . SVG Version: 6.00 Build 0)  -->
<svg version="1.1" id="Layer_1" xmlns="http://www.w3.org/2000/svg" xmlns:xlink="http://www.w3.org/1999/xlink" x="0px" y="0px"
	 viewBox="0 0 96.6 90.6" style="enable-background:new 0 0 96.6 90.6;" xml:space="preserve">
<style type="text/css">
	.st0{fill:#8691A3;}
</style>
<g>
	<path class="st0" d="M49.3,86.3c-0.7,0-1.3,0-2,0c-4.3-1.2-8.5-3.1-12.9-3.4c-9.3-0.5-18.7-0.2-28-0.1c-3,0-3.2,0-3.2-2.9
		c0-18.1,0-36.1,0-54.2c0-1.9,0.6-3,2.6-3.2c0.7-0.1,1.5-0.4,2.2-0.4c1.5-0.1,2-0.8,1.9-2.3c-0.1-2.1,0-4.2,0-6.3
		c0-1.8,0.7-2.6,2.6-2.5C22.7,11.3,33,12,42.7,15.5c3.8,1.4,6,1,8.8-2c4.8-5.2,11.2-8.1,18.3-9c3.1-0.4,3.5,0,3.5,3.1
		c0,1.3,0,2.6,0,3.9c3.8-0.2,7.3-0.3,10.7-0.5c1.9-0.1,2.8,0.7,2.7,2.6c0,1.8,0.1,3.7,0,5.5c-0.1,1.9,0.3,2.9,2.5,3.1
		c1.4,0.1,2.8,0.9,4.2,1.3c0,19.6,0,39.1,0,58.7c-1.7,0.1-3.4,0.4-5.1,0.4c-8.7,0.1-17.5-0.3-26.2,0.3
		C57.8,83.2,53.6,85.1,49.3,86.3z M13.3,67.8c1.3,0.1,2.5,0.2,3.6,0.3c10.1,0.6,20.1,1.8,29.6,5.5c0.6,0.2,1.7-0.4,2.4-0.9
		c3.7-2.7,7-5.9,10.9-8.2c2.9-1.8,6.5-2.4,9.9-3.6c0-17.5,0-35.1,0-53c-8.1,1.5-14.5,5.4-19.4,11.7c-0.5,0.6-0.5,1.7-0.5,2.6
		c0,3.5,0,6.9,0,10.6c-1.3-0.1-2.2-0.1-3.3-0.2c0-3.5-0.1-6.9,0-10.2c0.1-1.5-0.5-2.4-1.9-2.7c-4.3-1.1-8.5-2.6-12.8-3.4
		c-6.1-1-12.3-1.5-18.7-2.2C13.3,32.3,13.3,49.9,13.3,67.8z M73.4,15c0,1.3,0,2.2,0,3.1c0,14.3-0.1,28.6,0,42.9
		c0,2.5-0.6,3.5-3.3,3.8c-5.6,0.6-10.5,3-14.4,6.3c9-1.2,18.2-2.4,27.5-3.7c0-17.4,0-35.1,0-53C80,14.6,76.8,14.8,73.4,15z
		 M6.7,25.7c0,17.9,0,35.7,0,53.6c13.4-0.8,26.7-1.4,39.6,2.5c0.8-4.3,0.7-4.5-3-5.8c-9.7-3.3-19.7-4.3-29.8-4.7
		c-3.7-0.2-3.7-0.1-3.7-3.9c0-13,0-26.1,0-39.1c0-1,0-1.9,0-3C8.6,25.4,7.8,25.5,6.7,25.7z M89.9,79.3c0-18.1,0-35.8,0-53.6
		c-1-0.2-2-0.3-3.1-0.5c0,1.2,0,2.1,0,3c0,13.1,0,26.3,0,39.4c0,3.4-0.2,3.5-3.5,3.7C73.1,71.7,63,72.6,53.3,76
		c-3.7,1.3-3.8,1.5-3,5.8C63.2,77.9,76.5,78.5,89.9,79.3z"/>
	<path class="st0" d="M33.2,39.4c0,2.3,0,4.2,0,6.7c-3.5-2.9-6.7-5.6-10-8.3c3.3-2.7,6.4-5.3,9.9-8.2c0,2.3,0,4.2,0,6.5
		c7.9,0,15.6,0,23.5,0c0,1.3,0,2.2,0,3.4C48.8,39.4,41.2,39.4,33.2,39.4z"/>
	<path class="st0" d="M49.7,56c-1,0-1.8,0-2.9,0c0-4.4,0-8.7,0-13.1c0.9,0,1.8,0,2.9,0C49.7,47.2,49.7,51.5,49.7,56z"/>
	<path class="st0" d="M46.8,69.4c0-1,0-2,0-3c0.9,0,1.8,0,2.9,0c0,0.9,0,1.9,0,3C48.9,69.4,47.9,69.4,46.8,69.4z"/>
	<path class="st0" d="M49.8,59.7c0,1.1,0,1.9,0,3c-1,0-1.9,0-2.9,0c0-0.9,0-1.9,0-3C47.8,59.7,48.7,59.7,49.8,59.7z"/>
</g>
</svg>
