<?xml version="1.0" encoding="utf-8"?>
<!-- Generator: Adobe Illustrator 25.4.1, SVG Export Plug-In . SVG Version: 6.00 Build 0)  -->
<svg version="1.1" id="Layer_1" xmlns="http://www.w3.org/2000/svg" xmlns:xlink="http://www.w3.org/1999/xlink" x="0px" y="0px"
	 viewBox="0 0 972 978" style="enable-background:new 0 0 972 978;" xml:space="preserve">
<style type="text/css">
	.st0{fill:#2C3491;}
	.st1{fill:#FFFFFF;}
</style>
<path class="st0" d="M896.2,962H75.8C41.3,962,13,933.7,13,899.2V78.8C13,44.3,41.3,16,75.8,16h820.3c34.6,0,62.9,28.3,62.9,62.9
	v820.3C959,933.7,930.7,962,896.2,962z"/>
<g>
	<path class="st1" d="M534.5,439.8c-1,0-2-0.2-3-0.5L486,423.1l-45.4,16.2c-2.8,1-5.9,0.5-8.4-1.2c-2.4-1.8-3.8-4.6-3.7-7.6
		l1.3-48.2l-29.4-38.2c-1.8-2.4-2.4-5.5-1.4-8.3c0.9-2.8,3.2-5,6.1-5.9l46.3-13.6l27.3-39.8c1.7-2.5,4.5-3.9,7.5-3.9
		s5.8,1.5,7.5,3.9l27.3,39.8l46.3,13.6c2.9,0.8,5.1,3,6.1,5.9s0.4,6-1.4,8.3l-29.4,38.2l1.3,48.2c0.1,3-1.3,5.8-3.7,7.6
		C538.2,439.2,536.4,439.8,534.5,439.8z M422.8,343.5l23.3,30.3c1.3,1.6,1.9,3.7,1.9,5.8l-1.1,38.2l36-12.8c2-0.7,4.1-0.7,6.1,0
		l36,12.8l-1-38.2c-0.1-2.1,0.6-4.1,1.9-5.8l23.3-30.3l-36.7-10.8c-2-0.6-3.7-1.8-4.9-3.6L486,297.6l-21.6,31.5
		c-1.2,1.7-2.9,3-4.9,3.6L422.8,343.5z"/>
	<path class="st1" d="M618.1,356.4c-1.9,0-3.8-0.6-5.3-1.7c-2.4-1.8-3.8-4.6-3.7-7.6l0.6-20.3l-12.4-16.1c-1.8-2.4-2.4-5.5-1.4-8.3
		c0.9-2.8,3.2-5,6.1-5.9l19.5-5.7l11.5-16.8c1.7-2.5,4.5-3.9,7.5-3.9c3,0,5.8,1.5,7.5,3.9l11.5,16.8l19.5,5.7c2.9,0.8,5.1,3,6.1,5.9
		c0.9,2.8,0.4,6-1.4,8.3L671,326.8l0.6,20.3c0.1,3-1.3,5.8-3.7,7.6s-5.5,2.2-8.4,1.2l-19.1-6.8l-19.1,6.8
		C620.1,356.2,619.1,356.4,618.1,356.4z M640.3,330.4c1,0,2.1,0.2,3,0.5l9.7,3.5l-0.3-10.3c-0.1-2.1,0.6-4.1,1.9-5.8l6.3-8.2
		l-9.9-2.9c-2-0.6-3.7-1.8-4.9-3.6l-5.8-8.5l-5.8,8.5c-1.2,1.7-2.9,3-4.9,3.6l-9.9,2.9l6.3,8.2c1.3,1.6,1.9,3.7,1.9,5.8l-0.3,10.3
		l9.7-3.5C638.2,330.5,639.3,330.4,640.3,330.4z"/>
	<path class="st1" d="M353.9,356.4c-1,0-2-0.2-3-0.5l-19.1-6.8l-19.1,6.8c-2.8,1-5.9,0.5-8.4-1.2c-2.4-1.8-3.8-4.6-3.7-7.6l0.6-20.3
		l-12.4-16.1c-1.8-2.4-2.4-5.5-1.4-8.3c0.9-2.8,3.2-5,6.1-5.9l19.5-5.7l11.5-16.8c1.7-2.5,4.5-3.9,7.5-3.9c3,0,5.8,1.5,7.5,3.9
		l11.5,16.8l19.5,5.7c2.9,0.8,5.1,3,6.1,5.9c0.9,2.8,0.4,6-1.4,8.3l-12.4,16.1l0.6,20.3c0.1,3-1.3,5.8-3.7,7.6
		C357.7,355.8,355.8,356.4,353.9,356.4z M331.7,330.4c1,0,2.1,0.2,3,0.5l9.7,3.5l-0.3-10.3c-0.1-2.1,0.6-4.1,1.9-5.8l6.3-8.2
		l-9.9-2.9c-2-0.6-3.7-1.8-4.9-3.6l-5.8-8.5l-5.8,8.5c-1.2,1.7-2.9,3-4.9,3.6l-9.9,2.9l6.3,8.2c1.3,1.6,1.9,3.7,1.9,5.8l-0.3,10.3
		l9.7-3.5C329.7,330.5,330.7,330.4,331.7,330.4z"/>
	<path class="st1" d="M486,644.7c-0.6,0-1.2-0.1-1.8-0.2c-0.6-0.1-1.2-0.3-1.7-0.5c-0.6-0.2-1.1-0.5-1.6-0.8c-0.5-0.3-1-0.7-1.4-1.1
		c-0.4-0.4-0.8-0.9-1.1-1.4c-0.3-0.5-0.6-1-0.8-1.6c-0.2-0.5-0.4-1.1-0.5-1.7c-0.1-0.6-0.2-1.2-0.2-1.8c0-0.6,0.1-1.2,0.2-1.8
		c0.1-0.6,0.3-1.2,0.5-1.7c0.2-0.5,0.5-1.1,0.8-1.6c0.3-0.5,0.7-1,1.1-1.4c0.4-0.4,0.9-0.8,1.4-1.1c0.5-0.3,1-0.6,1.6-0.8
		c0.5-0.2,1.1-0.4,1.7-0.5c1.2-0.2,2.4-0.2,3.5,0c0.6,0.1,1.2,0.3,1.7,0.5c0.6,0.2,1.1,0.5,1.6,0.8c0.5,0.3,1,0.7,1.4,1.1
		c0.4,0.4,0.8,0.9,1.1,1.4c0.3,0.5,0.6,1,0.8,1.6c0.2,0.6,0.4,1.1,0.5,1.7c0.1,0.6,0.2,1.2,0.2,1.8c0,0.6-0.1,1.2-0.2,1.8
		c-0.1,0.6-0.3,1.2-0.5,1.7c-0.2,0.6-0.5,1.1-0.8,1.6c-0.3,0.5-0.7,1-1.1,1.4c-0.4,0.4-0.9,0.8-1.4,1.1c-0.5,0.3-1,0.6-1.6,0.8
		c-0.5,0.2-1.1,0.4-1.7,0.5C487.2,644.6,486.6,644.7,486,644.7z"/>
	<path class="st1" d="M486,614.8c-5,0-9.1-4.1-9.1-9.1V456.2c0-5,4.1-9.1,9.1-9.1s9.1,4.1,9.1,9.1v149.5
		C495.1,610.7,491,614.8,486,614.8z"/>
	<path class="st1" d="M639.8,557c-0.5,0-0.9,0-1.4-0.1c-3-0.5-5.5-2.4-6.8-5.1l-16.3-34.3l-34.3-16.3c-2.7-1.3-4.6-3.8-5.1-6.8
		c-0.5-3,0.6-5.9,2.7-8l27.6-26.1l4.9-37.6c0.4-3,2.2-5.5,4.9-6.9c2.7-1.4,5.8-1.3,8.5,0.1l33.3,18.1l37.3-7c2.9-0.6,6,0.4,8.1,2.5
		c2.1,2.1,3,5.1,2.5,8.1l-7,37.3l18.1,33.3c1.4,2.6,1.5,5.8,0.1,8.4c-1.4,2.7-3.9,4.5-6.9,4.9l-37.6,4.9l-26.1,27.5
		C644.7,556,642.3,557,639.8,557z M600.8,490.6l25.2,12c1.9,0.9,3.4,2.4,4.3,4.3l12,25.2l19.2-20.3c1.4-1.5,3.3-2.5,5.4-2.8
		l27.7-3.6L681.3,481c-1-1.8-1.3-3.9-0.9-6l5.1-27.5l-27.5,5.1c-2,0.4-4.2,0-6-1l-24.5-13.4l-3.6,27.7c-0.3,2.1-1.2,4-2.8,5.4
		L600.8,490.6z"/>
	<path class="st1" d="M502,708c-0.3,0-0.6,0-0.9,0c-5-0.5-8.6-5-8.1-9.9c5.9-57.5,33.6-101.1,55.8-127.6
		c23.9-28.6,46.6-43.8,47.5-44.5c4.2-2.8,9.8-1.6,12.6,2.5c2.8,4.2,1.6,9.8-2.5,12.6c-0.9,0.6-21.4,14.4-43.7,41
		c-20.5,24.6-46.2,64.9-51.6,117.8C510.5,704.5,506.6,708,502,708z"/>
	<path class="st1" d="M332.2,557c-2.5,0-4.9-1-6.6-2.8l-26.1-27.5l-37.6-4.9c-3-0.4-5.5-2.2-6.9-4.9c-1.4-2.7-1.3-5.8,0.1-8.4
		l18.1-33.3l-7-37.3c-0.6-2.9,0.4-6,2.5-8.1s5.1-3.1,8.1-2.5l37.3,7l33.3-18.1c2.6-1.4,5.8-1.5,8.5-0.1c2.7,1.4,4.5,3.9,4.9,6.9
		l4.9,37.6l27.6,26.1c2.2,2.1,3.2,5,2.7,8c-0.5,3-2.4,5.5-5.1,6.8l-34.3,16.3l-16.3,34.3c-1.3,2.7-3.8,4.6-6.8,5.1
		C333.1,557,332.6,557,332.2,557z M277.3,505.5l27.7,3.6c2.1,0.3,4,1.2,5.4,2.8l19.2,20.3l12-25.2c0.9-1.9,2.4-3.4,4.3-4.3l25.2-12
		l-20.3-19.2c-1.5-1.4-2.5-3.3-2.8-5.4l-3.6-27.7L320,451.7c-1.8,1-4,1.3-6,0.9l-27.5-5.1l5.1,27.5c0.4,2,0,4.2-0.9,6L277.3,505.5z"
		/>
	<path class="st1" d="M470,708c-4.6,0-8.5-3.5-9-8.1c-5.5-52.9-31.1-93.3-51.6-117.8c-22.3-26.6-42.8-40.4-43.7-41
		c-4.2-2.8-5.3-8.4-2.5-12.6c2.8-4.2,8.4-5.3,12.6-2.5c1,0.6,23.6,15.9,47.5,44.5c22.2,26.5,49.8,70.1,55.8,127.6
		c0.5,5-3.1,9.4-8.1,9.9C470.6,708,470.3,708,470,708z"/>
	<path class="st1" d="M557.2,706.3c-1.3,0-2.5-0.3-3.8-0.8c-4.5-2.1-6.5-7.5-4.5-12c13.8-30.2,36.9-48.8,53.8-59.1
		c17.9-10.9,32.5-15,34.1-15.4c4.8-1.3,9.8,1.6,11.1,6.4c1.3,4.8-1.6,9.8-6.4,11.1c-0.1,0-13.3,3.6-29.3,13.4
		c-14.7,9-34.8,25.2-46.8,51.2C563.9,704.4,560.6,706.3,557.2,706.3z"/>
	<path class="st1" d="M423.4,706.3c-3.4,0-6.7-2-8.2-5.3c-11.9-26-32-42.2-46.8-51.2c-16-9.8-29.2-13.3-29.3-13.4
		c-4.8-1.3-7.7-6.3-6.4-11.1c1.3-4.8,6.3-7.7,11.1-6.4c1.6,0.4,16.2,4.5,34.1,15.4c16.9,10.3,40,28.9,53.8,59.1
		c2.1,4.6,0.1,9.9-4.5,12C425.9,706,424.7,706.3,423.4,706.3z"/>
	<path class="st1" d="M676.2,591.2c-5,0-9.1-4.1-9.1-9.1v-7.5c0-5,4.1-9.1,9.1-9.1c5,0,9.1,4.1,9.1,9.1v7.5
		C685.2,587.2,681.2,591.2,676.2,591.2z"/>
	<path class="st1" d="M676.2,632.1c-5,0-9.1-4.1-9.1-9.1v-7.5c0-5,4.1-9.1,9.1-9.1c5,0,9.1,4.1,9.1,9.1v7.5
		C685.2,628.1,681.2,632.1,676.2,632.1z"/>
	<path class="st1" d="M700.4,607.9h-7.5c-5,0-9.1-4.1-9.1-9.1c0-5,4.1-9.1,9.1-9.1h7.5c5,0,9.1,4.1,9.1,9.1
		C709.5,603.8,705.4,607.9,700.4,607.9z"/>
	<path class="st1" d="M659.5,607.9h-7.5c-5,0-9.1-4.1-9.1-9.1c0-5,4.1-9.1,9.1-9.1h7.5c5,0,9.1,4.1,9.1,9.1
		C668.5,603.8,664.5,607.9,659.5,607.9z"/>
	<path class="st1" d="M295.8,591.2c-5,0-9.1-4.1-9.1-9.1v-7.5c0-5,4.1-9.1,9.1-9.1c5,0,9.1,4.1,9.1,9.1v7.5
		C304.9,587.2,300.8,591.2,295.8,591.2z"/>
	<path class="st1" d="M295.8,632.1c-5,0-9.1-4.1-9.1-9.1v-7.5c0-5,4.1-9.1,9.1-9.1c5,0,9.1,4.1,9.1,9.1v7.5
		C304.9,628.1,300.8,632.1,295.8,632.1z"/>
	<path class="st1" d="M320.1,607.9h-7.5c-5,0-9.1-4.1-9.1-9.1c0-5,4.1-9.1,9.1-9.1h7.5c5,0,9.1,4.1,9.1,9.1
		C329.1,603.8,325.1,607.9,320.1,607.9z"/>
	<path class="st1" d="M279.1,607.9h-7.5c-5,0-9.1-4.1-9.1-9.1c0-5,4.1-9.1,9.1-9.1h7.5c5,0,9.1,4.1,9.1,9.1
		C288.2,603.8,284.1,607.9,279.1,607.9z"/>
</g>
</svg>
