<?xml version="1.0" encoding="UTF-8"?>
<svg version="1.1" xmlns="http://www.w3.org/2000/svg" width="64" height="64">
<path d="M0 0 C0.68191406 0.14179688 1.36382812 0.28359375 2.06640625 0.4296875 C1.64488281 0.90019531 1.22335938 1.37070312 0.7890625 1.85546875 C0.24121094 2.47808594 -0.30664062 3.10070312 -0.87109375 3.7421875 C-1.68900391 4.66451172 -1.68900391 4.66451172 -2.5234375 5.60546875 C-4.13440934 7.48210708 -4.13440934 7.48210708 -4.93359375 10.4296875 C-4.41756029 12.62876452 -4.41756029 12.62876452 -2.93359375 14.4296875 C-0.74713769 15.86891546 -0.74713769 15.86891546 2.06640625 15.4296875 C4.7036855 13.37176479 6.84787447 10.92299157 9.06640625 8.4296875 C10.73307292 6.76302083 12.39973958 5.09635417 14.06640625 3.4296875 C14.56140625 2.8315625 15.05640625 2.2334375 15.56640625 1.6171875 C17.71106335 -0.08066604 19.41634731 0.21481786 22.06640625 0.4296875 C18.81695868 4.32902458 15.51900984 8.015511 11.87890625 11.5546875 C9.04677368 14.33845348 7.00253075 16.94466339 5.06640625 20.4296875 C4.32390625 20.9865625 3.58140625 21.5434375 2.81640625 22.1171875 C0.61733076 25.02310868 0.95681343 26.12870844 1.31640625 29.6796875 C1.54566482 31.26615683 1.78921244 32.85088795 2.06640625 34.4296875 C-1.49139571 33.81977859 -4.61645265 32.8513194 -7.93359375 31.4296875 C-8.59359375 32.0896875 -9.25359375 32.7496875 -9.93359375 33.4296875 C-8.28359375 33.7596875 -6.63359375 34.0896875 -4.93359375 34.4296875 C-4.93359375 37.0696875 -4.93359375 39.7096875 -4.93359375 42.4296875 C-4.70671875 41.6459375 -4.47984375 40.8621875 -4.24609375 40.0546875 C-2.58978321 36.74206642 -1.29321089 36.68954393 2.06640625 35.4296875 C2.76578157 34.11321631 3.43369758 32.77946599 4.06640625 31.4296875 C5.38174035 30.72817598 6.71758217 30.06442825 8.06640625 29.4296875 C10.4216285 27.6584257 10.4216285 27.6584257 12.06640625 25.4296875 C11.89020185 23.39097505 11.89020185 23.39097505 11.06640625 21.4296875 C11.06640625 20.1096875 11.06640625 18.7896875 11.06640625 17.4296875 C14.06640625 17.4296875 17.06640625 17.4296875 20.06640625 17.4296875 C21.42801936 16.46854884 22.76495823 15.47084591 24.06640625 14.4296875 C24.41015625 16.5859375 24.41015625 16.5859375 24.06640625 19.4296875 C21.82911731 21.95753345 19.50556509 24.10590444 16.9765625 26.32421875 C13.80885036 29.22718158 13.80885036 29.22718158 12.72265625 33.2734375 C12.83609375 33.985 12.94953125 34.6965625 13.06640625 35.4296875 C14.38640625 36.0896875 15.70640625 36.7496875 17.06640625 37.4296875 C16.40640625 38.0896875 15.74640625 38.7496875 15.06640625 39.4296875 C14.07640625 39.4296875 13.08640625 39.4296875 12.06640625 39.4296875 C12.06640625 41.0796875 12.06640625 42.7296875 12.06640625 44.4296875 C11.55078125 44.0996875 11.03515625 43.7696875 10.50390625 43.4296875 C7.05283819 42.01386471 4.77128273 41.91867005 1.06640625 42.4296875 C-1.66043995 43.97571191 -3.36567021 45.71760353 -4.93359375 48.4296875 C-5.69016364 51.77452282 -5.92006049 55.00577241 -5.93359375 58.4296875 C-7.25359375 58.4296875 -8.57359375 58.4296875 -9.93359375 58.4296875 C-10.26359375 57.1096875 -10.59359375 55.7896875 -10.93359375 54.4296875 C-11.59746094 55.1515625 -12.26132812 55.8734375 -12.9453125 56.6171875 C-13.82832031 57.5453125 -14.71132813 58.4734375 -15.62109375 59.4296875 C-16.49121094 60.3578125 -17.36132812 61.2859375 -18.2578125 62.2421875 C-20.93359375 64.4296875 -20.93359375 64.4296875 -23.765625 64.7421875 C-24.48105469 64.6390625 -25.19648438 64.5359375 -25.93359375 64.4296875 C-25.47726563 63.99398437 -25.0209375 63.55828125 -24.55078125 63.109375 C-22.79087655 61.2863347 -21.27279606 59.58367957 -19.93359375 57.4296875 C-20.34206567 54.20412227 -20.34206567 54.20412227 -21.93359375 51.4296875 C-22.28336133 50.10057068 -22.62455392 48.76886011 -22.93359375 47.4296875 C-23.92359375 48.4196875 -24.91359375 49.4096875 -25.93359375 50.4296875 C-25.25296875 51.1928125 -24.57234375 51.9559375 -23.87109375 52.7421875 C-23.23171875 53.6290625 -22.59234375 54.5159375 -21.93359375 55.4296875 C-22.26359375 56.4196875 -22.59359375 57.4096875 -22.93359375 58.4296875 C-25.60026042 57.09635417 -28.26692708 55.76302083 -30.93359375 54.4296875 C-31.49949219 55.0071875 -32.06539062 55.5846875 -32.6484375 56.1796875 C-33.38191406 56.9221875 -34.11539063 57.6646875 -34.87109375 58.4296875 C-35.96744141 59.5434375 -35.96744141 59.5434375 -37.0859375 60.6796875 C-38.93359375 62.4296875 -38.93359375 62.4296875 -39.93359375 62.4296875 C-40.30859375 60.3671875 -40.30859375 60.3671875 -39.93359375 57.4296875 C-38.56039049 55.53093732 -37.06008145 53.86874347 -35.44140625 52.17578125 C-33.83981478 50.47040328 -33.83981478 50.47040328 -32.87109375 48.26171875 C-31.93359375 46.4296875 -31.93359375 46.4296875 -29.80859375 45.6796875 C-29.18984375 45.5971875 -28.57109375 45.5146875 -27.93359375 45.4296875 C-27.93359375 43.4496875 -27.93359375 41.4696875 -27.93359375 39.4296875 C-29.58359375 39.0996875 -31.23359375 38.7696875 -32.93359375 38.4296875 C-32.27359375 37.4396875 -31.61359375 36.4496875 -30.93359375 35.4296875 C-30.27359375 35.4296875 -29.61359375 35.4296875 -28.93359375 35.4296875 C-29.26359375 34.7696875 -29.59359375 34.1096875 -29.93359375 33.4296875 C-30.89072266 34.40421875 -30.89072266 34.40421875 -31.8671875 35.3984375 C-32.69347656 36.23375 -33.51976562 37.0690625 -34.37109375 37.9296875 C-35.19480469 38.765 -36.01851562 39.6003125 -36.8671875 40.4609375 C-38.93359375 42.4296875 -38.93359375 42.4296875 -39.93359375 42.4296875 C-40.25479066 39.32602117 -40.28853271 37.89929307 -38.37304688 35.36499023 C-37.66083984 34.70442627 -36.94863281 34.0438623 -36.21484375 33.36328125 C-35.44785156 32.63044922 -34.68085937 31.89761719 -33.890625 31.14257812 C-33.07980469 30.39169922 -32.26898438 29.64082031 -31.43359375 28.8671875 C-29.8309524 27.37538064 -28.2367412 25.87445025 -26.65234375 24.36328125 C-25.94013672 23.70384521 -25.22792969 23.04440918 -24.49414062 22.36499023 C-22.51512155 20.32507207 -22.51512155 20.32507207 -22.93359375 16.4296875 C-22.08925781 16.24664062 -21.24492187 16.06359375 -20.375 15.875 C-15.04795621 13.63776254 -11.88889768 9.52448902 -8.05664062 5.30859375 C-3.52765686 0.51670074 -3.52765686 0.51670074 0 0 Z M-19.93359375 22.4296875 C-20.16046875 23.0278125 -20.38734375 23.6259375 -20.62109375 24.2421875 C-22.27170508 26.99320638 -24.13080185 27.95453387 -26.93359375 29.4296875 C-25.94359375 30.9146875 -25.94359375 30.9146875 -24.93359375 32.4296875 C-22.34979198 32.67999727 -22.34979198 32.67999727 -19.93359375 32.4296875 C-19.93359375 34.0796875 -19.93359375 35.7296875 -19.93359375 37.4296875 C-17.75427935 35.67104504 -16.99672956 34.7357275 -16.421875 31.94921875 C-16.36386719 31.05589844 -16.30585938 30.16257812 -16.24609375 29.2421875 C-16.18035156 28.34113281 -16.11460938 27.44007812 -16.046875 26.51171875 C-16.00949219 25.82464844 -15.97210938 25.13757813 -15.93359375 24.4296875 C-17.25359375 23.7696875 -18.57359375 23.1096875 -19.93359375 22.4296875 Z M-11.93359375 34.4296875 C-14.57359375 37.0696875 -17.21359375 39.7096875 -19.93359375 42.4296875 C-18.94359375 45.7296875 -17.95359375 49.0296875 -16.93359375 52.4296875 C-13.93716664 52.68693538 -13.93716664 52.68693538 -11.74609375 51.1171875 C-8.91316879 46.9166436 -9.28636173 42.35918719 -9.93359375 37.4296875 C-10.59359375 36.4396875 -11.25359375 35.4496875 -11.93359375 34.4296875 Z " fill="#000000" transform="translate(39.93359375,-0.4296875)"/>
<path d="M0 0 C0.99 3.63 1.98 7.26 3 11 C4.98 9.68 6.96 8.36 9 7 C9.32421875 9.13671875 9.32421875 9.13671875 9 12 C7.32229164 14.17720121 5.77005785 15.93032949 3.8125 17.8125 C3.08836914 18.56563477 3.08836914 18.56563477 2.34960938 19.33398438 C-0.04147393 21.6929726 -1.47618758 22.940687 -4.86328125 23.32421875 C-5.56839844 23.21722656 -6.27351562 23.11023438 -7 23 C-6.54367187 22.56429687 -6.08734375 22.12859375 -5.6171875 21.6796875 C-3.8572828 19.8566472 -2.33920231 18.15399207 -1 16 C-1.40847192 12.77443477 -1.40847192 12.77443477 -3 10 C-3.34976758 8.67088318 -3.69096017 7.33917261 -4 6 C-4.99 6.99 -5.98 7.98 -7 9 C-6.319375 9.763125 -5.63875 10.52625 -4.9375 11.3125 C-4.298125 12.199375 -3.65875 13.08625 -3 14 C-3.33 14.99 -3.66 15.98 -4 17 C-6.66666667 15.66666667 -9.33333333 14.33333333 -12 13 C-12.56589844 13.5775 -13.13179687 14.155 -13.71484375 14.75 C-14.44832031 15.4925 -15.18179687 16.235 -15.9375 17 C-17.03384766 18.11375 -17.03384766 18.11375 -18.15234375 19.25 C-20 21 -20 21 -21 21 C-21.375 18.9375 -21.375 18.9375 -21 16 C-19.62679674 14.10124982 -18.1264877 12.43905597 -16.5078125 10.74609375 C-14.90495612 9.03757859 -14.90495612 9.03757859 -13.921875 6.81640625 C-13.46554687 5.91728516 -13.46554687 5.91728516 -13 5 C-11.67203709 4.64587656 -10.33783393 4.31478446 -9 4 C-8.360625 3.319375 -7.72125 2.63875 -7.0625 1.9375 C-5 0 -5 0 0 0 Z " fill="#010101" transform="translate(21,41)"/>
<path d="M0 0 C0.4375 2.0625 0.4375 2.0625 0 5 C-1.74440106 6.91542077 -3.58709847 8.58326245 -5.56640625 10.25390625 C-6.03949219 10.83011719 -6.51257813 11.40632813 -7 12 C-6.81227599 14.18719857 -6.81227599 14.18719857 -6 16 C-7.38463806 17.32430525 -8.7832323 18.63402803 -10.1875 19.9375 C-10.96480469 20.66839844 -11.74210937 21.39929688 -12.54296875 22.15234375 C-15.17265645 24.12983546 -16.82136769 24.45177818 -20 25 C-20.825 25.845625 -21.65 26.69125 -22.5 27.5625 C-25 30 -25 30 -27.8125 30.3125 C-28.534375 30.209375 -29.25625 30.10625 -30 30 C-29.236875 29.071875 -28.47375 28.14375 -27.6875 27.1875 C-24.83077869 23.23328123 -23.76207799 19.26251006 -22.67578125 14.55078125 C-22.03755248 12.14174433 -21.19760951 10.17608196 -20 8 C-17.525 8.99 -17.525 8.99 -15 10 C-15.66 11.98 -16.32 13.96 -17 16 C-16.28082397 15.27296875 -16.28082397 15.27296875 -15.54711914 14.53125 C-13.38815902 12.35159362 -11.22539154 10.17575495 -9.0625 8 C-7.93038086 6.8553125 -7.93038086 6.8553125 -6.77539062 5.6875 C-6.05673828 4.965625 -5.33808594 4.24375 -4.59765625 3.5 C-3.93258057 2.8296875 -3.26750488 2.159375 -2.58227539 1.46875 C-1 0 -1 0 0 0 Z " fill="#2D2D2D" transform="translate(64,34)"/>
<path d="M0 0 C1.051875 0.185625 1.051875 0.185625 2.125 0.375 C1.72667969 0.83390625 1.32835938 1.2928125 0.91796875 1.765625 C-4.37357385 6.96917143 -4.37357385 6.96917143 -6.875 13.375 C-7.73544922 13.49681641 -7.73544922 13.49681641 -8.61328125 13.62109375 C-11.57012818 14.60670939 -12.93877041 16.17829798 -15.0625 18.4375 C-16.31889675 19.76382606 -17.58611809 21.08021931 -18.875 22.375 C-19.205 22.375 -19.535 22.375 -19.875 22.375 C-20.25 20.25 -20.25 20.25 -19.875 17.375 C-18.41683991 15.74629487 -16.83017674 14.3343855 -15.2109375 12.8671875 C-13.5958517 11.34598115 -13.5958517 11.34598115 -13.5 8.5 C-13.62375 7.79875 -13.7475 7.0975 -13.875 6.375 C-13.17375 6.49875 -12.4725 6.6225 -11.75 6.75 C-8.42143615 6.3158395 -8.04278775 5.76742897 -5.875 3.375 C-3.19444444 0.41666667 -3.19444444 0.41666667 0 0 Z " fill="#2D2D2D" transform="translate(19.875,-0.375)"/>
<path d="M0 0 C2.97 0.33 5.94 0.66 9 1 C8.979375 2.093125 8.95875 3.18625 8.9375 4.3125 C8.81455548 7.94384191 8.81455548 7.94384191 10 11 C8.906875 11.309375 7.81375 11.61875 6.6875 11.9375 C4.44592006 12.58337897 2.2130649 13.2623117 0 14 C0 12.35 0 10.7 0 9 C-1.65 8.67 -3.3 8.34 -5 8 C-4.34 7.01 -3.68 6.02 -3 5 C-2.34 5 -1.68 5 -1 5 C-0.67 3.35 -0.34 1.7 0 0 Z " fill="#000000" transform="translate(12,30)"/>
<path d="M0 0 C0.33 0 0.66 0 1 0 C1.328125 2.14453125 1.328125 2.14453125 1 5 C-0.70126235 7.12071151 -2.28598488 8.85092098 -4.25 10.6875 C-4.98669922 11.41549805 -4.98669922 11.41549805 -5.73828125 12.15820312 C-10.62528371 16.8823055 -10.62528371 16.8823055 -14 18 C-14.99 17.67 -15.98 17.34 -17 17 C-16.55527344 16.61328125 -16.11054687 16.2265625 -15.65234375 15.828125 C-15.08644531 15.30734375 -14.52054688 14.7865625 -13.9375 14.25 C-13.36902344 13.73953125 -12.80054688 13.2290625 -12.21484375 12.703125 C-10.75274577 11.07571493 -10.75274577 11.07571493 -11.31640625 9.046875 C-11.54199219 8.37140625 -11.76757812 7.6959375 -12 7 C-12 5.68 -12 4.36 -12 3 C-9 3 -6 3 -3 3 C-1.97980427 2.0206121 -0.97850195 1.02104551 0 0 Z " fill="#000000" transform="translate(63,14)"/>
<path d="M0 0 C0.99 0.99 1.98 1.98 3 3 C1.54638219 5.83072942 0.57308712 7.66964398 -2.22265625 9.28125 C-5.76330838 11.47237087 -8.37808427 14.19944062 -11.25 17.1875 C-13.14809896 19.14660929 -15.06043072 21.08125431 -17 23 C-17.33 23 -17.66 23 -18 23 C-18.35535635 19.78945405 -18.30925807 18.41549699 -16.34765625 15.7800293 C-15.59355469 15.05211182 -14.83945313 14.32419434 -14.0625 13.57421875 C-13.25039062 12.77822266 -12.43828125 11.98222656 -11.6015625 11.16210938 C-10.74304688 10.34548828 -9.88453125 9.52886719 -9 8.6875 C-8.14148437 7.85154297 -7.28296875 7.01558594 -6.3984375 6.15429688 C-4.27639854 4.09120344 -2.14358973 2.04065434 0 0 Z " fill="#272727" transform="translate(18,19)"/>
<path d="M0 0 C3.11728368 1.36508501 5.08663738 2.86919698 7.3125 5.4375 C7.84488281 6.03433594 8.37726562 6.63117187 8.92578125 7.24609375 C9.45751953 8.11427734 9.45751953 8.11427734 10 9 C9.67 9.99 9.34 10.98 9 12 C6.33333333 10.66666667 3.66666667 9.33333333 1 8 C0.43410156 8.5775 -0.13179688 9.155 -0.71484375 9.75 C-1.44832031 10.4925 -2.18179687 11.235 -2.9375 12 C-4.03384766 13.11375 -4.03384766 13.11375 -5.15234375 14.25 C-7 16 -7 16 -8 16 C-8.375 13.9375 -8.375 13.9375 -8 11 C-6.62679674 9.10124982 -5.1264877 7.43905597 -3.5078125 5.74609375 C-1.94044985 3.93103907 -0.98194706 2.17839711 0 0 Z " fill="#000000" transform="translate(8,46)"/>
<path d="M0 0 C1.98 0 3.96 0 6 0 C5.67 7.92 5.34 15.84 5 24 C3.68 24 2.36 24 1 24 C0.67 16.08 0.34 8.16 0 0 Z " fill="#000000" transform="translate(29,34)"/>
<path d="M0 0 C0.7425 0.0825 1.485 0.165 2.25 0.25 C-1.14855857 4.34569879 -4.65418504 8.3211872 -8.3125 12.1875 C-9.39724609 13.34572266 -9.39724609 13.34572266 -10.50390625 14.52734375 C-13.15795265 16.56288194 -14.4850428 16.62297402 -17.75 16.25 C-14.24169027 12.06655163 -10.66593271 8.06288185 -6.75 4.25 C-6.09 3.486875 -5.43 2.72375 -4.75 1.9375 C-2.75 0.25 -2.75 0.25 0 0 Z " fill="#212121" transform="translate(59.75,-0.25)"/>
<path d="M0 0 C2.475 0.99 2.475 0.99 5 2 C2.69 6.62 0.38 11.24 -2 16 C-2.99 15.67 -3.98 15.34 -5 15 C-4.54705135 13.24859857 -4.08741252 11.49892656 -3.625 9.75 C-3.36976562 8.77546875 -3.11453125 7.8009375 -2.8515625 6.796875 C-2.10401491 4.34162697 -1.22876183 2.24382595 0 0 Z " fill="#000000" transform="translate(44,42)"/>
<path d="M0 0 C1.32 0.66 2.64 1.32 4 2 C2.63491499 5.11728368 1.13080302 7.08663738 -1.4375 9.3125 C-2.03433594 9.84488281 -2.63117187 10.37726562 -3.24609375 10.92578125 C-3.82488281 11.28027344 -4.40367188 11.63476562 -5 12 C-5.99 11.67 -6.98 11.34 -8 11 C-6.63629701 8.00779732 -5.05091917 5.70973471 -2.875 3.25 C-2.33617187 2.63640625 -1.79734375 2.0228125 -1.2421875 1.390625 C-0.62730469 0.70226563 -0.62730469 0.70226563 0 0 Z " fill="#010101" transform="translate(54,46)"/>
<path d="M0 0 C0.703125 1.7421875 0.703125 1.7421875 1 4 C-0.328125 6.0703125 -0.328125 6.0703125 -2.25 8.125 C-2.87390625 8.80820312 -3.4978125 9.49140625 -4.140625 10.1953125 C-6 12 -6 12 -9 14 C-9.125 11.625 -9.125 11.625 -9 9 C-8.34 8.34 -7.68 7.68 -7 7 C-6.896875 6.34 -6.79375 5.68 -6.6875 5 C-6.3471875 4.01 -6.3471875 4.01 -6 3 C-3.5 1.8125 -3.5 1.8125 -1 1 C-0.67 0.67 -0.34 0.34 0 0 Z " fill="#212121" transform="translate(43,34)"/>
<path d="M0 0 C0.99 0.33 1.98 0.66 3 1 C1.61811547 4.21043882 0.07578097 6.04936365 -2.625 8.25 C-3.25664063 8.77078125 -3.88828125 9.2915625 -4.5390625 9.828125 C-5.02117188 10.21484375 -5.50328125 10.6015625 -6 11 C-6.375 8.875 -6.375 8.875 -6 6 C-4.20659643 3.76086748 -2.16547337 1.87545461 0 0 Z " fill="#2D2D2D" transform="translate(6,51)"/>
<path d="M0 0 C0.3125 2.1875 0.3125 2.1875 0 5 C-2.1875 7.8125 -2.1875 7.8125 -5 10 C-7.8125 10.3125 -7.8125 10.3125 -10 10 C-9.06409496 8.8944811 -8.12620142 7.79064547 -7.1875 6.6875 C-6.66542969 6.07261719 -6.14335938 5.45773438 -5.60546875 4.82421875 C-1.35974304 0 -1.35974304 0 0 0 Z " fill="#2D2D2D" transform="translate(64,54)"/>
<path d="M0 0 C0.66 0.33 1.32 0.66 2 1 C0.54782324 2.50596108 -0.91192861 4.00462104 -2.375 5.5 C-3.18710937 6.3353125 -3.99921875 7.170625 -4.8359375 8.03125 C-7 10 -7 10 -9 10 C-9.33 9.01 -9.66 8.02 -10 7 C-7.01767477 3.67356033 -4.13629913 1.70847138 0 0 Z " fill="#2B2B2B" transform="translate(30,30)"/>
<path d="M0 0 C1.32 0.66 2.64 1.32 4 2 C-1.53846154 7.84615385 -1.53846154 7.84615385 -5 9 C-5.99 8.67 -6.98 8.34 -8 8 C-5.36 5.36 -2.72 2.72 0 0 Z " fill="#2D2D2D" transform="translate(54,23)"/>
<path d="M0 0 C0.721875 0.103125 1.44375 0.20625 2.1875 0.3125 C-3.96284169 7.79541572 -3.96284169 7.79541572 -7.8125 10.3125 C-8.125 8.125 -8.125 8.125 -7.8125 5.3125 C-4.02871622 0.44763514 -4.02871622 0.44763514 0 0 Z " fill="#2D2D2D" transform="translate(7.8125,11.6875)"/>
<path d="M0 0 C2.31 0 4.62 0 7 0 C7 2.31 7 4.62 7 7 C4.69 7 2.38 7 0 7 C0 4.69 0 2.38 0 0 Z " fill="#010101" transform="translate(6,6)"/>
<path d="M0 0 C0.721875 0.103125 1.44375 0.20625 2.1875 0.3125 C1.25788578 1.46474028 0.3184875 2.60909176 -0.625 3.75 C-1.40810547 4.70712891 -1.40810547 4.70712891 -2.20703125 5.68359375 C-3.8125 7.3125 -3.8125 7.3125 -6.8125 8.3125 C-7.1425 7.3225 -7.4725 6.3325 -7.8125 5.3125 C-3.50480769 0.38942308 -3.50480769 0.38942308 0 0 Z " fill="#2D2D2D" transform="translate(39.8125,-0.3125)"/>
<path d="M0 0 C0.33 0.66 0.66 1.32 1 2 C1.66 2.33 2.32 2.66 3 3 C-1.30769231 7.92307692 -1.30769231 7.92307692 -4.8125 8.3125 C-5.534375 8.209375 -6.25625 8.10625 -7 8 C-6.02133662 6.85373678 -5.04205413 5.70800212 -4.0625 4.5625 C-3.51722656 3.92441406 -2.97195312 3.28632813 -2.41015625 2.62890625 C-1.63204305 1.73008851 -0.84063472 0.84063472 0 0 Z " fill="#2D2D2D" transform="translate(49,8)"/>
<path d="M0 0 C1.32 0.66 2.64 1.32 4 2 C-0.30769231 6.92307692 -0.30769231 6.92307692 -3.8125 7.3125 C-4.8953125 7.1578125 -4.8953125 7.1578125 -6 7 C-4.02 4.69 -2.04 2.38 0 0 Z " fill="#2D2D2D" transform="translate(20,57)"/>
<path d="M0 0 C0.375 2.1875 0.375 2.1875 0 5 C-1.83961648 6.99022836 -3.79186148 8.38989899 -6 10 C-6.6796875 8.203125 -6.6796875 8.203125 -7 6 C-5.8203125 4.296875 -5.8203125 4.296875 -4.125 2.75 C-3.57070313 2.22921875 -3.01640625 1.7084375 -2.4453125 1.171875 C-1 0 -1 0 0 0 Z " fill="#2D2D2D" transform="translate(64,14)"/>
<path d="M0 0 C-2 2 -2 2 -5 4 C-6.19232613 6.05003955 -6.19232613 6.05003955 -7 8 C-7.99 7.67 -8.98 7.34 -10 7 C-7.6551217 1.76911763 -5.98347266 -0.48514643 0 0 Z " fill="#2C2C2C" transform="translate(21,41)"/>
<path d="M0 0 C0.3125 2.25 0.3125 2.25 0 5 C-2.5 7.3125 -2.5 7.3125 -5 9 C-5.8125 7.3125 -5.8125 7.3125 -6 5 C-1.68181818 0 -1.68181818 0 0 0 Z " fill="#2D2D2D" transform="translate(30,48)"/>
<path d="M0 0 C0 3.66842255 -0.79029126 5.10451959 -3 8 C-5.6875 8.8125 -5.6875 8.8125 -8 9 C-7.04270084 7.87411986 -6.08412105 6.7493285 -5.125 5.625 C-4.59132813 4.99851562 -4.05765625 4.37203125 -3.5078125 3.7265625 C-2.38567993 2.44163349 -1.20628025 1.20628025 0 0 Z " fill="#2A2A2A" transform="translate(30,7)"/>
<path d="M0 0 C0.99 0 1.98 0 3 0 C3 1.32 3 2.64 3 4 C1.68 4 0.36 4 -1 4 C-0.67 2.68 -0.34 1.36 0 0 Z " fill="#000000" transform="translate(25,41)"/>
<path d="M0 0 C0.99 0 1.98 0 3 0 C3 1.32 3 2.64 3 4 C1.68 4 0.36 4 -1 4 C-0.67 2.68 -0.34 1.36 0 0 Z " fill="#000000" transform="translate(41,9)"/>
<path d="M0 0 C1.32 0.33 2.64 0.66 4 1 C4 1.99 4 2.98 4 4 C2.68 4 1.36 4 0 4 C0 2.68 0 1.36 0 0 Z " fill="#000000" transform="translate(19,9)"/>
<path d="M0 0 C0.99 0 1.98 0 3 0 C3 1.32 3 2.64 3 4 C1.68 3.67 0.36 3.34 -1 3 C-0.67 2.01 -0.34 1.02 0 0 Z " fill="#000000" transform="translate(45,23)"/>
<path d="M0 0 C1.32 0 2.64 0 4 0 C3.67 1.32 3.34 2.64 3 4 C2.01 3.67 1.02 3.34 0 3 C0 2.01 0 1.02 0 0 Z " fill="#000000" transform="translate(9,16)"/>
<path d="M0 0 C0.99 0.495 0.99 0.495 2 1 C1.01 1.495 1.01 1.495 0 2 C0 1.34 0 0.68 0 0 Z " fill="#303030" transform="translate(0,0)"/>
</svg>
